<?xml version="1.0" encoding="utf-8"?>
<!-- Generator: Adobe Illustrator 24.1.2, SVG Export Plug-In . SVG Version: 6.00 Build 0)  -->
<svg version="1.1" id="Layer_1" xmlns="http://www.w3.org/2000/svg" xmlns:xlink="http://www.w3.org/1999/xlink" x="0px" y="0px"
	 viewBox="0 0 1000 1000" style="enable-background:new 0 0 1000 1000;" xml:space="preserve">
<style type="text/css">
	.st0{enable-background:new    ;}
	.st1{clip-path:url(#SVGID_2_);enable-background:new    ;}
	.st2{fill:#1F1F1F;}
	.st3{fill:#2B2B2B;}
	.st4{fill:#353535;}
	.st5{fill:#3D3D3D;}
	.st6{fill:#444444;}
	.st7{fill:#4B4B4B;}
	.st8{fill:#515151;}
	.st9{fill:#575757;}
	.st10{fill:#5C5C5C;}
	.st11{fill:#616161;}
	.st12{fill:#656565;}
	.st13{fill:#6A6A6A;}
	.st14{fill:#6E6E6E;}
	.st15{fill:#727272;}
	.st16{fill:#777777;}
	.st17{fill:#7A7A7A;}
	.st18{fill:#7E7E7E;}
	.st19{fill:#828282;}
	.st20{fill:#858585;}
	.st21{clip-path:url(#SVGID_4_);}
	.st22{fill:#FFFFFF;}
	.st23{clip-path:url(#SVGID_6_);enable-background:new    ;}
	.st24{clip-path:url(#SVGID_8_);}
	.st25{fill:#385B55;}
	.st26{fill:#2D1400;}
</style>
<symbol  id="New_Symbol" viewBox="-217 -30.6 434 61.3">
	
		<text transform="matrix(1 0 0 -1 -216.9844 19.2109)" class="st22" style="font-family:'Pretendard-Black-KSCpc-EUC-H'; font-size:12px;"> KGR KGR KGR KGR KGR KGR KGR KGR KGR KGR KGR KGR KGR KGR KGR KGR</text>
	
		<text transform="matrix(1 0 0 -1 -216.9844 -1.7891)" class="st22" style="font-family:'Pretendard-Black-KSCpc-EUC-H'; font-size:12px;"> KGR KGR KGR KGR KGR KGR KGR KGR KGR KGR KGR KGR KGR KGR KGR KGR</text>
	
		<text transform="matrix(1 0 0 -1 -216.9844 -22.7891)" class="st22" style="font-family:'Pretendard-Black-KSCpc-EUC-H'; font-size:12px;"> KGR KGR KGR KGR KGR KGR KGR KGR KGR KGR KGR KGR KGR KGR KGR KGR</text>
</symbol>
<g>
	<g class="st0">
		<g class="st0">
			<g>
				<defs>
					<path id="SVGID_1_" d="M-614.1,718.8c0-3.1,0.1-7.3,0.5-10.4c0.4-2.8,0.7-6.5,1.2-9.3c0.5-3,1.4-7,2.2-10
						c0.7-2.7,1.8-6.2,2.7-8.8c1-2.9,2.6-6.6,3.8-9.4c1.2-2.9,3.1-6.6,4.7-9.3c2.7-4.6,6.7-10.4,9.8-14.7c1.9-2.6,4.8-5.9,7-8.2
						c1.8-1.8,4.2-4.3,6.1-6c2.7-2.4,6.4-5.4,9.2-7.6c1.9-1.5,4.5-3.2,6.5-4.5c2-1.3,4.8-2.9,6.8-4.1c3.5-2,8.3-4.3,12.1-5.8
						c2.4-1,5.7-2.2,8.2-3c2.5-0.8,6-1.8,8.6-2.4c2.4-0.6,5.7-1.3,8.2-1.7c2.6-0.5,4.7-0.7,6.9-1c1.8-0.2,6.8-0.7,13.4-0.7
						c7.8,0,13.9,0.9,16.2,1.3c2.6,0.4,5.6,1,7,1.3c2.4,0.5,5.5,1.3,7.9,1.9c1.8,0.5,4.1,1.2,5.8,1.8c2.4,0.9,5.6,2.1,8,3.1
						c3.7,1.5,8.4,4,12,5.9c28.6,16.2,47.4,48.3,47.3,87.7c-0.1,62.1-47.2,118.7-105.3,126.5c58-7.8,105.1-64.5,105.3-126.5
						c0.1-39.3-18.8-71.4-47.3-87.7c2.8,1.6,6.5,3.8,9.1,5.7c1.9,1.4,4.6,3.3,6.5,4.8c2.4,1.9,5.5,4.5,7.6,6.7
						c1.8,1.8,4.3,4.3,6,6.2c2,2.2,4.6,5.3,6.4,7.7c5.7,7.5,9.2,14,10.1,15.8c1.9,3.6,4.7,9,7.5,17.4c1.8,5.3,3.4,12.5,4.5,17.9
						c0.6,3,1,7.1,1.3,10.2c0.2,2.9,0.3,6.7,0.4,9.6c0.1,3.5-0.2,8.2-0.6,11.6c-0.3,2.8-0.8,6.5-1.3,9.3c-0.6,3-1.5,7-2.3,9.9
						c-0.7,2.7-1.8,6.2-2.8,8.7c-1,2.9-2.7,6.6-3.9,9.4c-1,2.5-2.8,5.7-4.1,8c-1.5,2.7-3.8,6.2-5.5,8.8c-1.8,2.8-4.5,6.3-6.7,8.8
						c-3.3,3.9-8,8.9-11.8,12.3c-2.7,2.4-6.5,5.4-9.4,7.6c-1.9,1.4-4.5,3.1-6.5,4.4c-1.1,0.7-7.6,4.7-13.2,7.2
						c-4.8,2.1-9.3,4.2-17.4,6.4c-5.1,1.4-9.5,2.3-12.3,2.8c-6.2,1-11.2,1.4-12.6,1.4c-2.5,0.1-3.7,0.2-5.2,0.2
						c-2.3,0-4.9,0-7.6-0.1c-2.8-0.2-7.6-0.4-14.4-1.6c-12.8-2.2-22.2-6.2-25.3-7.5c-10.7-4.5-19.7-10.6-22.3-12.5
						c-2.5-1.9-5.9-4.3-8.2-6.4c-1.9-1.7-4.5-4-6.2-5.8c-2.1-2.1-4.9-5.1-6.8-7.4c-3.4-4-7.4-9.8-10.4-14.3
						c-1.7-2.5-3.5-6.1-4.9-8.8c-1.4-2.7-3.1-6.3-4.1-9.1c-1.9-5.2-4.2-12.2-5.5-17.5c-1.2-4.9-2-11.6-2.5-16.7
						C-614,725.5-614,721.7-614.1,718.8z"/>
				</defs>
				<clipPath id="SVGID_2_">
					<use xlink:href="#SVGID_1_"  style="overflow:visible;"/>
				</clipPath>
				<g class="st1">
					<path d="M-614.1,718.8c0.1,5.9,0.3,19.8,5.3,35.1c5.5,16.8,11.3,25.5,17,33.8c4.2,6.2,20.5,27.5,52,40.3
						c35.9,14.5,89,11.5,127-27.8c19.1-19.8,25-38.8,28.6-50.1c1.6-5.1,6.5-23.7,2.7-49.8c-2.5-17.4-10.7-35.4-17.2-44.7
						c-7.2-10.4-17.1-24.6-40.6-38.3c28.6,16.2,47.4,48.3,47.3,87.7c-0.1,62.1-47.2,118.7-105.3,126.5
						c58-7.8,105.1-64.5,105.3-126.5c0.1-39.3-18.8-71.4-47.3-87.7c-11.5-6.1-16.8-8.4-29.8-11.9c-1.3-0.3-12.7-3.3-27.1-3.4
						c-29.7-0.2-51.5,11.1-57.4,14.6c-15,8.8-20.5,14.1-28.6,22.2c-3.7,3.6-9.6,10.6-16.9,22.9C-608.5,677.5-614.4,700-614.1,718.8"
						/>
					<path d="M-392,704.9c-0.1,62.1-47.2,118.7-105.3,126.5c-0.1,0-0.3,0-0.4,0c-101.7,5.1-140.5-104.8-95.4-156.3
						c49.1-56.1,152.9-9.3,158.7,71.6c4.4,62.1-41.1,77.4-62.9,84.7C-439.2,823.6-392.1,767-392,704.9c0.1-39.3-18.8-71.4-47.3-87.7
						c-1.8-1-4.2-2.2-6-3.2c-2.7-1.2-6.3-2.9-9-4l-4.9-1.8c-1.7-0.5-4-1.3-5.8-1.8l-4-1.1c-1.3-0.3-2.9-0.7-4.2-1l-3.3-0.6
						c-1-0.2-2.4-0.4-3.4-0.5l-2.9-0.4c-0.9-0.1-2-0.2-2.9-0.3l-2.7-0.2c-0.8,0-1.9-0.1-2.6-0.2l-2.5-0.1c-0.8,0-1.8,0-2.5,0l-2.5,0
						c-0.8,0-1.8,0-2.6,0.1l-2.7,0.1c-0.8,0.1-1.9,0.1-2.7,0.2l-2.9,0.3c-0.9,0.1-2.2,0.3-3.1,0.4l-3.8,0.6
						c-11.1,2.1-16.5,3.8-25,7.1l-6.1,2.7c-7.8,4-8.3,4.3-12.8,7.2l-6.5,4.5c-2.8,2.2-6.5,5.2-9.2,7.6l-6.1,6c-2.1,2.4-5,5.7-7,8.2
						l-5.2,7.1c-1.6,2.6-3.8,6.1-5.4,8.8l-4,8c-1.2,2.8-2.8,6.6-3.8,9.4l-2.7,8.8c-0.7,3-1.6,7-2.2,10l-1.2,9.3
						c-0.2,3.1-0.5,7.3-0.5,10.4l0.4,9.6c0.6,5,1.6,11.7,2.5,16.7l2.4,8.9c1,2.8,2.3,6.7,3.4,9.5l3.8,8.2c1.5,2.6,3.3,6.2,4.9,8.8
						l4.9,7.3c1.9,2.4,4.4,5.7,6.4,8l5.9,6.3c2.4,2.2,5.6,5.2,8.1,7.3l6.3,4.9c3.1,2,7.2,4.7,10.3,6.6l6,3.2c2.7,1.2,6.3,2.9,9,4
						l4.9,1.8c1.7,0.5,4,1.3,5.8,1.8l4,1.1c1.3,0.3,2.9,0.7,4.2,1l3.3,0.6c1,0.2,2.3,0.4,3.3,0.5l2.9,0.4c0.9,0.1,2,0.2,2.9,0.3
						l2.7,0.2c0.8,0,1.9,0.1,2.6,0.2l2.5,0.1c0.8,0,1.8,0,2.5,0l2.5,0c0.8,0,1.8,0,2.6-0.1l2.7-0.1c0.8-0.1,1.9-0.1,2.7-0.2l2.9-0.3
						c0.9-0.1,2.2-0.3,3.1-0.4l3.8-0.6c8.7-1.6,14.2-3,23.7-6.6l6-2.6c7.7-3.8,8.3-4.2,13.2-7.2l6.5-4.4c2.9-2.2,6.6-5.2,9.4-7.6
						l6.1-5.9c2.2-2.4,5.1-5.6,7.2-8.2l5.2-7.1c1.6-2.6,3.9-6.1,5.5-8.8l4.1-8c1.2-2.8,2.8-6.5,3.9-9.4l2.8-8.7
						c0.7-3,1.7-6.9,2.3-9.9l1.3-9.3c0.2-3.5,0.5-8.1,0.6-11.6l-0.4-9.6c-0.4-3.1-0.8-7.2-1.3-10.2l-1.9-9.1
						c-0.9-2.9-1.9-6.8-2.9-9.7l-3.3-8.5c-1.3-2.7-3-6.4-4.4-9l-4.5-7.7c-1.8-2.5-4-5.9-5.9-8.3l-5.6-6.7c-2.2-2.3-5.1-5.4-7.5-7.5
						l-6.2-5.3c-8.2-6.1-9-6.7-15.5-10.5C-410.8,633.5-391.9,665.5-392,704.9"/>
					<path d="M-392,704.9c-0.1,51.5-32.6,99.3-76.8,118.5c-1.5,0.8-3.5,1.9-5.1,2.7c-77.7,32.7-164.1-55.5-132-134.8
						c25.7-63.5,131.7-61,167.4,21.8c18.8,43.7,6.1,90.1-30.3,110.4C-424.6,804.2-392.1,756.4-392,704.9
						c0.1-39.3-18.8-71.4-47.3-87.7c-1.8-1-4.2-2.2-6-3.2c-2.7-1.2-6.3-2.9-9-4l-4.9-1.8c-1.7-0.5-4-1.3-5.8-1.8l-4-1.1
						c-1.3-0.3-2.9-0.7-4.2-1l-3.3-0.6c-1-0.2-2.4-0.4-3.4-0.5l-2.9-0.4c-0.9-0.1-2-0.2-2.9-0.3l-2.7-0.2c-0.8,0-1.9-0.1-2.6-0.2
						l-2.5-0.1c-0.8,0-1.8,0-2.5,0l-2.5,0c-0.8,0-1.8,0-2.6,0.1l-2.7,0.1c-0.8,0.1-1.9,0.1-2.7,0.2l-2.9,0.3
						c-0.9,0.1-2.2,0.3-3.1,0.4l-3.8,0.6c-11.1,2.1-16.5,3.8-25,7.1l-6.1,2.7c-7.8,4-8.3,4.3-12.8,7.2l-6.5,4.5
						c-2.8,2.2-6.5,5.2-9.2,7.6l-6.1,6c-2.1,2.4-5,5.7-7,8.2l-5.2,7.1c-1.6,2.6-3.8,6.1-5.4,8.8l-4,8c-1.2,2.8-2.8,6.6-3.8,9.4
						l-2.7,8.8c-0.7,3-1.6,7-2.2,10l-1.2,9.3c-0.2,3.1-0.5,7.3-0.5,10.4l0.4,9.6c0.6,5,1.6,11.7,2.5,16.7l2.4,8.9
						c1,2.8,2.3,6.7,3.4,9.5l3.8,8.2c1.5,2.6,3.3,6.2,4.9,8.8l4.9,7.3c1.9,2.4,4.4,5.7,6.4,8l5.9,6.3c2.4,2.2,5.6,5.2,8.1,7.3
						l6.3,4.9c3.1,2,7.2,4.7,10.3,6.6l6,3.2c2.7,1.2,6.3,2.9,9,4l4.9,1.8c1.7,0.5,4,1.3,5.8,1.8l4,1.1c1.3,0.3,2.9,0.7,4.2,1
						l3.3,0.6c1,0.2,2.3,0.4,3.3,0.5l2.9,0.4c0.9,0.1,2,0.2,2.9,0.3l2.7,0.2c0.8,0,1.9,0.1,2.6,0.2l2.5,0.1c0.8,0,1.8,0,2.5,0l2.5,0
						c0.8,0,1.8,0,2.6-0.1l2.7-0.1c0.8-0.1,1.9-0.1,2.7-0.2l2.9-0.3c0.9-0.1,2.2-0.3,3.1-0.4l3.8-0.6c8.7-1.6,14.2-3,23.7-6.6l6-2.6
						c7.7-3.8,8.3-4.2,13.2-7.2l6.5-4.4c2.9-2.2,6.6-5.2,9.4-7.6l6.1-5.9c2.2-2.4,5.1-5.6,7.2-8.2l5.2-7.1c1.6-2.6,3.9-6.1,5.5-8.8
						l4.1-8c1.2-2.8,2.8-6.5,3.9-9.4l2.8-8.7c0.7-3,1.7-6.9,2.3-9.9l1.3-9.3c0.2-3.5,0.5-8.1,0.6-11.6l-0.4-9.6
						c-0.4-3.1-0.8-7.2-1.3-10.2l-1.9-9.1c-0.9-2.9-1.9-6.8-2.9-9.7l-3.3-8.5c-1.3-2.7-3-6.4-4.4-9l-4.5-7.7c-1.8-2.5-4-5.9-5.9-8.3
						l-5.6-6.7c-2.2-2.3-5.1-5.4-7.5-7.5l-6.2-5.3c-8.2-6.1-9-6.7-15.5-10.5C-410.8,633.5-391.9,665.5-392,704.9"/>
					<g>
						<path d="M-609.2,752.4c-22.8-81.2,51.9-137.7,126.9-95.9c55,30.7,79.7,112.7,30.6,157.7c35.3-22.9,59.7-64.7,59.8-109.4
							c0.1-39.3-18.8-71.4-47.3-87.7c-1.8-1-4.2-2.2-6-3.2c-2.7-1.2-6.3-2.9-9-4l-4.9-1.8c-1.7-0.5-4-1.3-5.8-1.8l-4-1.1
							c-1.3-0.3-2.9-0.7-4.2-1l-3.3-0.6c-1-0.2-2.4-0.4-3.4-0.5l-2.9-0.4c-0.9-0.1-2-0.2-2.9-0.3l-2.7-0.2c-0.8,0-1.9-0.1-2.6-0.2
							l-2.5-0.1c-0.8,0-1.8,0-2.5,0l-2.5,0c-0.8,0-1.8,0-2.6,0.1l-2.7,0.1c-0.8,0.1-1.9,0.1-2.7,0.2l-2.9,0.3
							c-0.9,0.1-2.2,0.3-3.1,0.4l-3.8,0.6c-11.1,2.1-16.5,3.8-25,7.1l-6.1,2.7c-7.8,4-8.3,4.3-12.8,7.2l-6.5,4.5
							c-2.8,2.2-6.5,5.2-9.2,7.6l-6.1,6c-2.1,2.4-5,5.7-7,8.2l-5.2,7.1c-1.6,2.6-3.8,6.1-5.4,8.8l-4,8c-1.2,2.8-2.8,6.6-3.8,9.4
							l-2.7,8.8c-0.7,3-1.6,7-2.2,10l-1.2,9.3c-0.2,3.1-0.5,7.3-0.5,10.4l0.4,9.6c0.6,5,1.6,11.7,2.5,16.7l2.4,8.9l2.5,7.3l-2.9-8.4
							C-609.1,752.7-609.2,752.5-609.2,752.4"/>
						<path d="M-392,704.9c-0.1,44.7-24.5,86.5-59.8,109.4c-1.4,1.2-3.3,2.8-4.7,4.1c-13.5,10.1-50.5,30.2-102.4,0
							c3,1.8,7.1,4,10.1,5.6c2.7,1.2,6.3,2.9,9,4l4.9,1.8c1.7,0.5,4,1.3,5.8,1.8l4,1.1c1.3,0.3,2.9,0.7,4.2,1l3.3,0.6
							c1,0.2,2.3,0.4,3.3,0.5l2.9,0.4c0.9,0.1,2,0.2,2.9,0.3l2.7,0.2c0.8,0,1.9,0.1,2.6,0.2l2.5,0.1c0.8,0,1.8,0,2.5,0l2.5,0
							c0.8,0,1.8,0,2.6-0.1l2.7-0.1c0.8-0.1,1.9-0.1,2.7-0.2l2.9-0.3c0.9-0.1,2.2-0.3,3.1-0.4l3.8-0.6c8.7-1.6,14.2-3,23.7-6.6
							l6-2.6c7.7-3.8,8.3-4.2,13.2-7.2l6.5-4.4c2.9-2.2,6.6-5.2,9.4-7.6l6.1-5.9c2.2-2.4,5.1-5.6,7.2-8.2l5.2-7.1
							c1.6-2.6,3.9-6.1,5.5-8.8l4.1-8c1.2-2.8,2.8-6.5,3.9-9.4l2.8-8.7c0.7-3,1.7-6.9,2.3-9.9l1.3-9.3c0.2-3.5,0.5-8.1,0.6-11.6
							l-0.4-9.6c-0.4-3.1-0.8-7.2-1.3-10.2l-1.9-9.1c-0.9-2.9-1.9-6.8-2.9-9.7l-3.3-8.5c-1.3-2.7-3-6.4-4.4-9l-4.5-7.7
							c-1.8-2.5-4-5.9-5.9-8.3l-5.6-6.7c-2.2-2.3-5.1-5.4-7.5-7.5l-6.2-5.3c-8.2-6.1-9-6.7-15.5-10.5
							C-410.8,633.5-391.9,665.5-392,704.9"/>
					</g>
					<g>
						<path d="M-612.7,737.3c-11.1-93.3,84.2-126.6,148.9-73.8c33.3,27.1,63,88.9,24.8,141.1c28.2-24,46.8-60.8,46.9-99.8
							c0.1-39.3-18.8-71.4-47.3-87.7c-1.8-1-4.2-2.2-6-3.2c-2.7-1.2-6.3-2.9-9-4l-4.9-1.8c-1.7-0.5-4-1.3-5.8-1.8l-4-1.1
							c-1.3-0.3-2.9-0.7-4.2-1l-3.3-0.6c-1-0.2-2.4-0.4-3.4-0.5l-2.9-0.4c-0.9-0.1-2-0.2-2.9-0.3l-2.7-0.2c-0.8,0-1.9-0.1-2.6-0.2
							l-2.5-0.1c-0.8,0-1.8,0-2.5,0l-2.5,0c-0.8,0-1.8,0-2.6,0.1l-2.7,0.1c-0.8,0.1-1.9,0.1-2.7,0.2l-2.9,0.3
							c-0.9,0.1-2.2,0.3-3.1,0.4l-3.8,0.6c-11.1,2.1-16.5,3.8-25,7.1l-6.1,2.7c-7.8,4-8.3,4.3-12.8,7.2l-6.5,4.5
							c-2.8,2.2-6.5,5.2-9.2,7.6l-6.1,6c-2.1,2.4-5,5.7-7,8.2l-5.2,7.1c-1.6,2.6-3.8,6.1-5.4,8.8l-4,8c-1.2,2.8-2.8,6.6-3.8,9.4
							l-2.7,8.8c-0.7,3-1.6,7-2.2,10l-1.2,9.3c-0.2,3.1-0.5,7.3-0.5,10.4l0.4,9.6c0.4,3.2,0.8,7.5,1.3,10.7L-612.7,737.3"/>
						<path d="M-392,704.9c-0.1,39-18.7,75.8-46.9,99.8c-0.6,0.8-1.3,1.8-1.9,2.5c-34.1,38.3-78.4,28.1-95.8,22l4.9,1.6l2.8,0.8
							l4,1.1c1.3,0.3,2.9,0.7,4.2,1l3.3,0.6c1,0.2,2.3,0.4,3.3,0.5l2.9,0.4c0.9,0.1,2,0.2,2.9,0.3l2.7,0.2c0.8,0,1.9,0.1,2.6,0.2
							l2.5,0.1c0.8,0,1.8,0,2.5,0l2.5,0c0.8,0,1.8,0,2.6-0.1l2.7-0.1c0.8-0.1,1.9-0.1,2.7-0.2l2.9-0.3c0.9-0.1,2.2-0.3,3.1-0.4
							l3.8-0.6c8.7-1.6,14.2-3,23.7-6.6l6-2.6c7.7-3.8,8.3-4.2,13.2-7.2l6.5-4.4c2.9-2.2,6.6-5.2,9.4-7.6l6.1-5.9
							c2.2-2.4,5.1-5.6,7.2-8.2l5.2-7.1c1.6-2.6,3.9-6.1,5.5-8.8l4.1-8c1.2-2.8,2.8-6.5,3.9-9.4l2.8-8.7c0.7-3,1.7-6.9,2.3-9.9
							l1.3-9.3c0.2-3.5,0.5-8.1,0.6-11.6l-0.4-9.6c-0.4-3.1-0.8-7.2-1.3-10.2l-1.9-9.1c-0.9-2.9-1.9-6.8-2.9-9.7l-3.3-8.5
							c-1.3-2.7-3-6.4-4.4-9l-4.5-7.7c-1.8-2.5-4-5.9-5.9-8.3l-5.6-6.7c-2.2-2.3-5.1-5.4-7.5-7.5l-6.2-5.3c-8.2-6.1-9-6.7-15.5-10.5
							C-410.8,633.5-391.9,665.5-392,704.9"/>
					</g>
					<g>
						<path d="M-614.1,718.7c4.7-99.6,112.5-105.4,165.1-48.4c33.8,36.7,42.3,86.5,21,124c22-23.6,36-55.7,36-89.4
							c0.1-39.3-18.8-71.4-47.3-87.7c-1.8-1-4.2-2.2-6-3.2c-2.7-1.2-6.3-2.9-9-4l-4.9-1.8c-1.7-0.5-4-1.3-5.8-1.8l-4-1.1
							c-1.3-0.3-2.9-0.7-4.2-1l-3.3-0.6c-1-0.2-2.4-0.4-3.4-0.5l-2.9-0.4c-0.9-0.1-2-0.2-2.9-0.3l-2.7-0.2c-0.8,0-1.9-0.1-2.6-0.2
							l-2.5-0.1c-0.8,0-1.8,0-2.5,0l-2.5,0c-0.8,0-1.8,0-2.6,0.1l-2.7,0.1c-0.8,0.1-1.9,0.1-2.7,0.2l-2.9,0.3
							c-0.9,0.1-2.2,0.3-3.1,0.4l-3.8,0.6c-11.1,2.1-16.5,3.8-25,7.1l-6.1,2.7c-7.8,4-8.3,4.3-12.8,7.2l-6.5,4.5
							c-2.8,2.2-6.5,5.2-9.2,7.6l-6.1,6c-2.1,2.4-5,5.7-7,8.2l-5.2,7.1c-1.6,2.6-3.8,6.1-5.4,8.8l-4,8c-1.2,2.8-2.8,6.6-3.8,9.4
							l-2.7,8.8c-0.7,3-1.6,7-2.2,10l-1.2,9.3c-0.2,3.1-0.5,7.3-0.5,10.4L-614.1,718.7"/>
						<path d="M-392,704.9c-0.1,33.7-14,65.8-36,89.4l0,0c-18.2,31.8-51.9,46.7-90.2,39.8l3.3,0.5l0.8,0.1l2.9,0.4
							c0.9,0.1,2,0.2,2.9,0.3l2.7,0.2c0.8,0,1.9,0.1,2.6,0.2l2.5,0.1c0.8,0,1.8,0,2.5,0l2.5,0c0.8,0,1.8,0,2.6-0.1l2.7-0.1
							c0.8-0.1,1.9-0.1,2.7-0.2l2.9-0.3c0.9-0.1,2.2-0.3,3.1-0.4l3.8-0.6c8.7-1.6,14.2-3,23.7-6.6l6-2.6c7.7-3.8,8.3-4.2,13.2-7.2
							l6.5-4.4c2.9-2.2,6.6-5.2,9.4-7.6l6.1-5.9c2.2-2.4,5.1-5.6,7.2-8.2l5.2-7.1c1.6-2.6,3.9-6.1,5.5-8.8l4.1-8
							c1.2-2.8,2.8-6.5,3.9-9.4l2.8-8.7c0.7-3,1.7-6.9,2.3-9.9l1.3-9.3c0.2-3.5,0.5-8.1,0.6-11.6l-0.4-9.6
							c-0.4-3.1-0.8-7.2-1.3-10.2l-1.9-9.1c-0.9-2.9-1.9-6.8-2.9-9.7l-3.3-8.5c-1.3-2.7-3-6.4-4.4-9l-4.5-7.7
							c-1.8-2.5-4-5.9-5.9-8.3l-5.6-6.7c-2.2-2.3-5.1-5.4-7.5-7.5l-6.2-5.3c-8.2-6.1-9-6.7-15.5-10.5
							C-410.8,633.5-391.9,665.5-392,704.9"/>
					</g>
					<g>
						<path d="M-611.5,694.7c20-85.1,133.2-88.5,183.5-5.5c17.9,29.4,21.5,65.3,9.6,93.5c16.3-22,26.3-49.3,26.3-77.8
							c0.1-39.3-18.8-71.4-47.3-87.7c-1.8-1-4.2-2.2-6-3.2c-2.7-1.2-6.3-2.9-9-4l-4.9-1.8c-1.7-0.5-4-1.3-5.8-1.8l-4-1.1
							c-1.3-0.3-2.9-0.7-4.2-1l-3.3-0.6c-1-0.2-2.4-0.4-3.4-0.5l-2.9-0.4c-0.9-0.1-2-0.2-2.9-0.3l-2.7-0.2c-0.8,0-1.9-0.1-2.6-0.2
							l-2.5-0.1c-0.8,0-1.8,0-2.5,0l-2.5,0c-0.8,0-1.8,0-2.6,0.1l-2.7,0.1c-0.8,0.1-1.9,0.1-2.7,0.2l-2.9,0.3
							c-0.9,0.1-2.2,0.3-3.1,0.4l-3.8,0.6c-11.1,2.1-16.5,3.8-25,7.1l-6.1,2.7c-7.8,4-8.3,4.3-12.8,7.2l-6.5,4.5
							c-2.8,2.2-6.5,5.2-9.2,7.6l-6.1,6c-2.1,2.4-5,5.7-7,8.2l-5.2,7.1c-1.6,2.6-3.8,6.1-5.4,8.8l-4,8c-1.2,2.8-2.8,6.6-3.8,9.4
							l-2.7,8.8c-0.7,3-1.6,7-2.2,10c-0.1,0.9-0.3,2.1-0.5,3C-612.4,699.8-612,696.9-611.5,694.7"/>
						<path d="M-392,704.9c0,28.5-10,55.8-26.3,77.8c-0.2,0.6-0.5,1.5-0.7,2.1c-14.3,33.2-43.9,51.9-81.1,51.3c1.4,0,3.3,0,4.7,0
							c0.8,0,1.8,0,2.6-0.1l2.7-0.1c0.8-0.1,1.9-0.1,2.7-0.2l2.9-0.3c0.9-0.1,2.2-0.3,3.1-0.4l3.8-0.6c8.7-1.6,14.2-3,23.7-6.6
							l6-2.6c7.7-3.8,8.3-4.2,13.2-7.2l6.5-4.4c2.9-2.2,6.6-5.2,9.4-7.6l6.1-5.9c2.2-2.4,5.1-5.6,7.2-8.2l5.2-7.1
							c1.6-2.6,3.9-6.1,5.5-8.8l4.1-8c1.2-2.8,2.8-6.5,3.9-9.4l2.8-8.7c0.7-3,1.7-6.9,2.3-9.9l1.3-9.3c0.2-3.5,0.5-8.1,0.6-11.6
							l-0.4-9.6c-0.4-3.1-0.8-7.2-1.3-10.2l-1.9-9.1c-0.9-2.9-1.9-6.8-2.9-9.7l-3.3-8.5c-1.3-2.7-3-6.4-4.4-9l-4.5-7.7
							c-1.8-2.5-4-5.9-5.9-8.3l-5.6-6.7c-2.2-2.3-5.1-5.4-7.5-7.5l-6.2-5.3c-8.2-6.1-9-6.7-15.5-10.5
							C-410.8,633.5-391.9,665.5-392,704.9"/>
					</g>
					<g>
						<path d="M-608.3,682.8c34.3-90.8,151.1-70,190.7,12.5c8.1,16.9,16.1,43.4,8.2,73.8c11-19.2,17.4-41.3,17.5-64.2
							c0.1-39.3-18.8-71.4-47.3-87.7c-1.8-1-4.2-2.2-6-3.2c-2.7-1.2-6.3-2.9-9-4l-4.9-1.8c-1.7-0.5-4-1.3-5.8-1.8l-4-1.1
							c-1.3-0.3-2.9-0.7-4.2-1l-3.3-0.6c-1-0.2-2.4-0.4-3.4-0.5l-2.9-0.4c-0.9-0.1-2-0.2-2.9-0.3l-2.7-0.2c-0.8,0-1.9-0.1-2.6-0.2
							l-2.5-0.1c-0.8,0-1.8,0-2.5,0l-2.5,0c-0.8,0-1.8,0-2.6,0.1l-2.7,0.1c-0.8,0.1-1.9,0.1-2.7,0.2l-2.9,0.3
							c-0.9,0.1-2.2,0.3-3.1,0.4l-3.8,0.6c-11.1,2.1-16.5,3.8-25,7.1l-6.1,2.7c-7.8,4-8.3,4.3-12.8,7.2l-6.5,4.5
							c-2.8,2.2-6.5,5.2-9.2,7.6l-6.1,6c-2.1,2.4-5,5.7-7,8.2l-5.2,7.1c-1.6,2.6-3.8,6.1-5.4,8.8l-4,8c-1.2,2.8-2.8,6.6-3.8,9.4
							c-0.4,1.1-0.8,2.5-1.2,3.7C-608.6,683.6-608.5,683.1-608.3,682.8"/>
						<path d="M-392,704.9c0,22.9-6.5,45-17.5,64.2c-0.5,2.2-1.1,5-1.6,7.2c-15.4,42.1-46.4,55.1-69.8,58.6l3.8-0.6
							c5.8-1.1,12.5-2.4,23-6.5l6-2.6c7.7-3.8,8.3-4.2,13.2-7.2l6.5-4.4c2.9-2.2,6.6-5.2,9.4-7.6l6.1-5.9c2.2-2.4,5.1-5.6,7.2-8.2
							l5.2-7.1c1.6-2.6,3.9-6.1,5.5-8.8l4.1-8c1.2-2.8,2.8-6.5,3.9-9.4l2.8-8.7c0.7-3,1.7-6.9,2.3-9.9l1.3-9.3
							c0.2-3.5,0.5-8.1,0.6-11.6l-0.4-9.6c-0.4-3.1-0.8-7.2-1.3-10.2l-1.9-9.1c-0.9-2.9-1.9-6.8-2.9-9.7l-3.3-8.5
							c-1.3-2.7-3-6.4-4.4-9l-4.5-7.7c-1.8-2.5-4-5.9-5.9-8.3l-5.6-6.7c-2.2-2.3-5.1-5.4-7.5-7.5l-6.2-5.3c-8.2-6.1-9-6.7-15.5-10.5
							C-410.8,633.5-391.9,665.5-392,704.9"/>
					</g>
					<g>
						<path d="M-595.2,655.6c55.4-79.2,177.2-24.7,193,64c2.2,12.3,2.9,16.5,1.2,32.1c5.8-14.7,9-30.6,9.1-46.8
							c0.1-39.3-18.8-71.4-47.3-87.7c-1.8-1-4.2-2.2-6-3.2c-2.7-1.2-6.3-2.9-9-4l-4.9-1.8c-1.7-0.5-4-1.3-5.8-1.8l-4-1.1
							c-1.3-0.3-2.9-0.7-4.2-1l-3.3-0.6c-1-0.2-2.4-0.4-3.4-0.5l-2.9-0.4c-0.9-0.1-2-0.2-2.9-0.3l-2.7-0.2c-0.8,0-1.9-0.1-2.6-0.2
							l-2.5-0.1c-0.8,0-1.8,0-2.5,0l-2.5,0c-0.8,0-1.8,0-2.6,0.1l-2.7,0.1c-0.8,0.1-1.9,0.1-2.7,0.2l-2.9,0.3
							c-0.9,0.1-2.2,0.3-3.1,0.4l-3.8,0.6c-11.1,2.1-16.5,3.8-25,7.1l-6.1,2.7c-7.8,4-8.3,4.3-12.8,7.2l-6.5,4.5
							c-2.8,2.2-6.5,5.2-9.2,7.6l-6.1,6c-2.1,2.4-5,5.7-7,8.2l-5.2,7.1c-1.6,2.6-3.8,6.1-5.4,8.8l3.2-5.3
							C-596.2,656.9-595.6,656.2-595.2,655.6"/>
						<path d="M-392,704.9c0,16.2-3.3,32.1-9.1,46.8c0,2-0.1,4.8-0.1,6.8c-8.5,48.9-41.9,66.3-61.1,72.3l4.3-1.4l4.1-1.5l6-2.6
							c7.7-3.8,8.3-4.2,13.2-7.2l6.5-4.4c2.9-2.2,6.6-5.2,9.4-7.6l6.1-5.9c2.2-2.4,5.1-5.6,7.2-8.2l5.2-7.1c1.6-2.6,3.9-6.1,5.5-8.8
							l4.1-8c1.2-2.8,2.8-6.5,3.9-9.4l2.8-8.7c0.7-3,1.7-6.9,2.3-9.9l1.3-9.3c0.2-3.5,0.5-8.1,0.6-11.6l-0.4-9.6
							c-0.4-3.1-0.8-7.2-1.3-10.2l-1.9-9.1c-0.9-2.9-1.9-6.8-2.9-9.7l-3.3-8.5c-1.3-2.7-3-6.4-4.4-9l-4.5-7.7
							c-1.8-2.5-4-5.9-5.9-8.3l-5.6-6.7c-2.2-2.3-5.1-5.4-7.5-7.5l-6.2-5.3c-8.2-6.1-9-6.7-15.5-10.5
							C-410.8,633.5-391.9,665.5-392,704.9"/>
					</g>
					<path d="M-529.4,828.7c73.3,14.4,117.7-64,73.1-129.1c-46-67.2-142.1-56.2-153.6,17.5C-617.4,765.7-579,819-529.4,828.7"/>
					<path d="M-540.1,824.8c76.3,23.6,120.1-52.5,85.7-114c-41.9-74.8-135.6-65.4-152-2C-620.2,761.7-583.2,811.4-540.1,824.8"/>
					<path d="M-554.7,817.4c65.8,34,122.5-23.7,104.8-84.2c-23.5-80.5-119.5-92.6-149.7-35.8C-621,737.9-600.1,794-554.7,817.4"/>
					<path d="M-559.3,813.6c61.6,34.8,123.5-12.9,105.2-81c-17.3-64.3-114.5-95.3-145.5-29.5C-619.2,744.5-594.6,793.7-559.3,813.6"
						/>
					<path d="M-566.2,807.6c56.2,38.2,119.2,1.5,110.4-64.4c-8.9-67.2-97.7-98.8-135.7-48.3C-618.7,731.1-600.6,784.2-566.2,807.6"
						/>
					<path d="M-567.1,805.2c57.9,41.5,117.5-3.6,107.7-62.5c-11.7-70-102.5-88.8-132.2-42.4C-615.2,737.3-597.3,783.6-567.1,805.2"
						/>
					<path d="M-566.2,803.9c59.7,42.2,112.9-10.2,103.1-61.5c-13.2-69.3-98.8-84.1-128.4-36.3C-610.3,736.5-599.2,779.5-566.2,803.9
						"/>
					<path d="M-573.1,795.8c52,47.1,108.5,6.6,107.4-43.3c-1.5-68.4-82.3-87.5-115.7-53.6C-609.2,727.3-599.5,771.9-573.1,795.8"/>
					<path d="M-571.5,794.5c49.2,44.5,109.2,3.6,102.4-52.7c-6.7-54.5-84.2-77.1-115.2-33.6C-605.4,737.7-593.5,774.7-571.5,794.5"
						/>
					<path d="M-569.6,793.1c50,43.8,104.5-3.8,97.9-51.5c-7.1-51.3-78.5-72.2-109.2-32C-604,740.1-588.2,776.8-569.6,793.1"/>
					<path d="M-574.7,784.1c40.6,47.4,98.1,12.9,100.9-32.2c3.2-52.1-63.8-77.2-96.5-47.4C-602.4,733.9-587.2,769.4-574.7,784.1"/>
					<path d="M-572,782.7c37.9,43.1,92.6,10.6,95.7-30.9c3.3-44.3-53.2-79-92.4-43.9C-595.3,731.8-586.7,766-572,782.7"/>
					<path d="M-568.7,781.2c35,39,86.6,8.5,89.9-29.6c3.4-39.7-48.4-77.7-89.7-39.2C-584.5,727.3-588.5,759.2-568.7,781.2"/>
					<path d="M-564.9,779.8c31.6,32.3,79.8,9.9,83.7-28.3c4.5-43.6-47-69.3-81-40.5C-585.1,730.3-582.1,762.2-564.9,779.8"/>
					<path d="M-567.6,770c16.7,25,43.8,20.9,44.1,20.8c9.1-2,36.8-8,40.6-39.4c4.6-37.6-39.3-63.7-72.3-43
						C-575,720.7-580.9,750.1-567.6,770"/>
					<path d="M-563.7,768.8c22.5,32.7,73.5,21.4,79-17.5c2.5-17.7-6.5-33.8-24.7-44.2c-5-2.8-22.9-10.9-45.6,4.1
						C-568.6,720.2-579.6,745.8-563.7,768.8"/>
					<path d="M-560.5,767.9c22.7,28.7,68.3,18.4,74.1-16.6c1.3-7.8,1.6-27.7-23-42.1c-7.4-4.4-22.8-9.8-43.1,3.2
						C-570.2,723.6-574.1,750.6-560.5,767.9"/>
					<path class="st2" d="M-557,767.1c23.4,27.8,63.4,14,68.9-15.9c5.7-31.1-32-56.3-59.3-39.6C-575.8,728.9-564.4,758.3-557,767.1"
						/>
					<path class="st3" d="M-556.7,762.1c6.3,9.7,18.3,20.4,40,16.8c10.6-1.7,23.8-13.3,26.8-27.8c2.8-13.6-3.2-26.1-17.8-37.3
						c-7.8-6-26.5-7.6-34.5-2.9c-16.1,9.5-16.9,12.2-20.6,25.2C-563.3,738.1-565.6,748.4-556.7,762.1"/>
					<path class="st4" d="M-551.4,765.9c10,10.3,28.8,13.5,34.4,11.2c14-5.8,14.3-6,21.4-15.9c3-4.3,5.5-12.6,4.5-20.3
						c-1.6-11.4-9.3-19.3-11.6-21.4c-6-5.6-6-5.6-22.1-9.8c-10.2-2.7-27.7,9.6-30.7,14.3C-570,746.4-552.2,765.1-551.4,765.9"/>
					<path class="st5" d="M-555.6,756.3c4.1,7.9,14.6,20.8,38.2,18.9c6.8-0.6,21.4-11.5,24-24c4-19-10.9-31.2-11.5-31.7
						c-7.8-6.3-19.4-8.3-19.9-8.4c-4.5-0.8-10.9,0.6-15.2,2.5c-4.4,1.9-9.6,6.2-12.7,9.9c-1.1,1.3-6,11.9-6,12
						C-558.7,735.4-560.7,746.4-555.6,756.3"/>
					<path class="st6" d="M-553.6,755.9c2.6,4.5,12.7,19.2,35.8,17.3l11.1-4.8c5.7-5.6,9.5-9.3,11.6-17.3
						c3.5-13.5-3.9-25.2-11.9-31.6c-5.3-4.3-17.6-6.9-17.7-7c-4.6-0.6-10.9,0.8-15.1,2.7c-2,0.9-12.1,5.9-16.7,19.7
						C-557.3,736.9-558.3,747.7-553.6,755.9"/>
					<path class="st7" d="M-551.6,755.5c0,0.1,7.2,8.3,8,9c3.7,2.7,9.5,4.7,13.6,6.6c3.2,1.5,8.3,0.5,11.8,0.2
						c3.7-0.3,8.7-2.3,11.4-4.8c6.8-6.4,9.3-12.4,10.1-15.3c1.5-5.3,3.3-19.1-12.4-31.6c-3.9-3.1-10.6-5.1-15.5-5.5
						c-4.6-0.4-10.8,1-15,2.9C-549.3,721.3-561.9,738.4-551.6,755.5"/>
					<path class="st8" d="M-549.5,755.2c3.7,6.1,12.6,16,31.1,14.5c3.8-0.3,8.7-2.7,11.5-5.2c5.3-5,8.6-13.3,8.6-13.4
						c3.1-10.4-1.1-22-10.8-29.6c-1.5-1.2-13.5-5.8-15.5-6c-4.6-0.4-10.8,1.2-14.9,3.2C-539.8,718.8-562.5,733.7-549.5,755.2"/>
					<path class="st9" d="M-547.5,754.8c4.2,6.8,13.3,11,16.3,12.4c3.4,1.6,8.7,1.2,12.5,0.9c3.9-0.3,8.8-3,11.6-5.6
						c2.4-2.2,7.1-11.3,7.1-11.4c3.4-10.3-1.9-22-8.9-27.5c-4-3.1-10.5-6.1-15.6-6.6c-4.5-0.5-10.7,1.5-14.9,3.4
						C-539.5,720.4-559.5,735.1-547.5,754.8"/>
					<path class="st10" d="M-545.5,754.5c0,0.1,6.2,7.3,14,10.9c3.4,1.5,8.8,1.4,12.5,1.1c0,0,10.6-5.1,11.8-6.1
						c2.4-2.2,4.6-6.2,5.6-9.3c4.5-13-4.8-23.8-7.4-25.7c-2.2-1.7-13.4-6.7-15.5-7c-0.8-0.1-14.1,3.3-14.8,3.7
						c-3.6,2.5-8.2,7.1-9.1,11.4C-549.4,739.5-550.9,746.9-545.5,754.5"/>
					<path class="st11" d="M-543.6,754.2c0,0.1,10.2,8.6,11.6,9.2c3.5,1.5,8.9,1.7,12.8,1.4c1.3-0.1,9.5-4.8,11.9-6.8
						c1.8-1.6,3.4-4.6,4.2-6.9c4.9-14.4-5.6-23.7-5.7-23.8c-0.1-0.1-14.6-7.3-15.4-7.4c-0.5-0.1-14.1,3.9-14.6,4.3
						C-546.5,729.4-551.7,743.5-543.6,754.2"/>
					<path class="st12" d="M-541.6,753.9c2.1,2.8,5.8,6,9.1,7.3c3.6,1.5,9.1,2.2,13,1.9c1.4-0.1,11.9-7.5,12-7.6
						c1.2-1,2.2-3,2.7-4.4c3.7-10.8-2.5-20.8-4-21.9c-4.2-3.1-10.3-7.2-15.4-7.7c-4.5-0.5-10.8,2-14.5,4.6
						C-545,730.6-549.3,743.9-541.6,753.9"/>
					<path class="st13" d="M-539.6,753.7c1.5,2,4.2,4.4,6.5,5.3c3.8,1.5,9.3,3.3,13.3,2.5c4.3-0.9,8.6-5.6,12.1-8.3
						c0.5-0.4,1-1.3,1.2-2c4-12.8-1.3-18.8-3.7-20.9c-3.6-3-9.3-6.7-13.9-7c-4.5-0.3-10.2,3.2-14.4,4.9c-5.2,2-5.6,15.4-5.6,15.5
						C-543.6,747-541.6,751.1-539.6,753.7"/>
					<path class="st14" d="M-537.6,753.4c1,1.2,2.5,2.8,4,3.3c3.9,1.4,9.5,3.8,13.5,2.9c4.2-0.9,8.3-5.7,11.7-8.4
						c0.4-0.3,0.4-1,0.5-1.5c0.6-2.6,1.9-6.3,1.2-8.9c-1-3.5-3.6-8.1-6.5-10.4c-2.8-2.3-7.2-5.2-10.8-5.4
						c-4.5-0.3-10.1,3.3-14.3,5.2c-0.8,0.4-1.5,1.5-1.9,2.3C-545.2,743.1-539.5,751-537.6,753.4"/>
					<path class="st15" d="M-535.6,753.2c0.4,0.5,0.9,1.1,1.5,1.2c4.1,1.2,9.6,4.1,13.7,3.3c3.2-0.6,6.8-3.8,8.8-6.4
						c1.8-2.4,2.8-6.5,3.3-9.5c0.1-0.4,0.2-1.1-0.1-1.4c-2.1-3.1-4.8-7.5-7.7-9.8c-2-1.6-5.2-3.7-7.7-3.8c-4.5-0.2-11.2,2-14.1,5.5
						c-2.2,2.6-2.9,7.7-2.5,11.1C-540.1,746.6-537.6,750.6-535.6,753.2"/>
					<path class="st16" d="M-534.9,750.5c0.7,0.8,1.7,1.9,2.7,2.3c3.4,1.3,8,3.7,11.6,3c2.2-0.4,4.7-2.5,5.9-4.3
						c1.8-2.8,4.4-7.2,3.9-10.5c-0.6-3.9-5.4-7.5-8.2-10.2c-1.1-1.1-3.1-2.2-4.6-2.3C-527.7,728.2-546.3,735.9-534.9,750.5"/>
					<path class="st17" d="M-536,744.3c2.2,2.9,6.1,6,9.2,8c1.6,1,4.2,2,6,1.6c1.1-0.2,2.5-1.3,3.1-2.3c1.7-3,4.7-7.2,4.2-10.6
						c0-0.1-7.7-10.8-9.9-10.9c-1.6-0.1-2.7-0.1-13,11.5C-537,742.3-536.5,743.7-536,744.3"/>
					<path class="st18" d="M-521.5,751.9c0.1,0,0.3,0.1,0.4,0.1c0.5-0.1,4.7-10.7,4.6-10.8c-0.4-3.2-3.6-8-6.8-8.2
						c-4-0.2-9.6,5.4-9.4,9.3C-532.4,746.8-525.4,749.8-521.5,751.9"/>
					<path class="st19" d="M-521.8,747.1c1.8-0.4,2.7-3.9,2.4-5.8c-0.3-1.6-1.9-4.1-3.5-4.2c-2-0.1-4.9,2.8-4.9,4.8
						C-527.7,744.3-524.1,747.7-521.8,747.1"/>
					<path class="st20" d="M-522.4,742c0.2,0,0.2-0.3,0.2-0.5c0-0.1-0.2-0.3-0.3-0.3c-0.2,0-0.4,0.2-0.4,0.4
						C-522.8,741.8-522.5,742-522.4,742"/>
				</g>
			</g>
			<g>
				<defs>
					<path id="SVGID_3_" d="M-614.1,718.8c0-3.1,0.1-7.3,0.5-10.4c0.4-2.8,0.7-6.5,1.2-9.3c0.5-3,1.4-7,2.2-10
						c0.7-2.7,1.8-6.2,2.7-8.8c1-2.9,2.6-6.6,3.8-9.4c1.2-2.9,3.1-6.6,4.7-9.3c2.7-4.6,6.7-10.4,9.8-14.7c1.9-2.6,4.8-5.9,7-8.2
						c1.8-1.8,4.2-4.3,6.1-6c2.7-2.4,6.4-5.4,9.2-7.6c1.9-1.5,4.5-3.2,6.5-4.5c2-1.3,4.8-2.9,6.8-4.1c3.5-2,8.3-4.3,12.1-5.8
						c2.4-1,5.7-2.2,8.2-3c2.5-0.8,6-1.8,8.6-2.4c2.4-0.6,5.7-1.3,8.2-1.7c2.6-0.5,4.7-0.7,6.9-1c1.8-0.2,6.8-0.7,13.4-0.7
						c7.8,0,13.9,0.9,16.2,1.3c2.6,0.4,5.6,1,7,1.3c2.4,0.5,5.5,1.3,7.9,1.9c1.8,0.5,4.1,1.2,5.8,1.8c2.4,0.9,5.6,2.1,8,3.1
						c3.7,1.5,8.4,4,12,5.9c28.6,16.2,47.4,48.3,47.3,87.7c-0.1,62.1-47.2,118.7-105.3,126.5c58-7.8,105.1-64.5,105.3-126.5
						c0.1-39.3-18.8-71.4-47.3-87.7c2.8,1.6,6.5,3.8,9.1,5.7c1.9,1.4,4.6,3.3,6.5,4.8c2.4,1.9,5.5,4.5,7.6,6.7
						c1.8,1.8,4.3,4.3,6,6.2c2,2.2,4.6,5.3,6.4,7.7c5.7,7.5,9.2,14,10.1,15.8c1.9,3.6,4.7,9,7.5,17.4c1.8,5.3,3.4,12.5,4.5,17.9
						c0.6,3,1,7.1,1.3,10.2c0.2,2.9,0.3,6.7,0.4,9.6c0.1,3.5-0.2,8.2-0.6,11.6c-0.3,2.8-0.8,6.5-1.3,9.3c-0.6,3-1.5,7-2.3,9.9
						c-0.7,2.7-1.8,6.2-2.8,8.7c-1,2.9-2.7,6.6-3.9,9.4c-1,2.5-2.8,5.7-4.1,8c-1.5,2.7-3.8,6.2-5.5,8.8c-1.8,2.8-4.5,6.3-6.7,8.8
						c-3.3,3.9-8,8.9-11.8,12.3c-2.7,2.4-6.5,5.4-9.4,7.6c-1.9,1.4-4.5,3.1-6.5,4.4c-1.1,0.7-7.6,4.7-13.2,7.2
						c-4.8,2.1-9.3,4.2-17.4,6.4c-5.1,1.4-9.5,2.3-12.3,2.8c-6.2,1-11.2,1.4-12.6,1.4c-2.5,0.1-3.7,0.2-5.2,0.2
						c-2.3,0-4.9,0-7.6-0.1c-2.8-0.2-7.6-0.4-14.4-1.6c-12.8-2.2-22.2-6.2-25.3-7.5c-10.7-4.5-19.7-10.6-22.3-12.5
						c-2.5-1.9-5.9-4.3-8.2-6.4c-1.9-1.7-4.5-4-6.2-5.8c-2.1-2.1-4.9-5.1-6.8-7.4c-3.4-4-7.4-9.8-10.4-14.3
						c-1.7-2.5-3.5-6.1-4.9-8.8c-1.4-2.7-3.1-6.3-4.1-9.1c-1.9-5.2-4.2-12.2-5.5-17.5c-1.2-4.9-2-11.6-2.5-16.7
						C-614,725.5-614,721.7-614.1,718.8z"/>
				</defs>
				<clipPath id="SVGID_4_">
					<use xlink:href="#SVGID_3_"  style="overflow:visible;"/>
				</clipPath>
				<g class="st21">
					<path class="st22" d="M-404,656.3c0.9,1.7,1.6,2.2,2.1,2.4l0.1,0c-0.6-1.2-1.1-2.4-1.7-3.6C-404,655-404.8,654.7-404,656.3
						 M-405.9,656c-1.5-2.9-1.5-4.5,0-4c0.3,0.1,0.7,0.2,1,0.3c1.7,3.1,3.3,6.3,4.7,9.7l0.9,4.5l-2.3-0.6l-0.9-5.3
						C-403.2,659.9-404.5,658.8-405.9,656"/>
					<path class="st22" d="M-414,655.8c-0.1,2.3-0.1,5.5-0.4,7.8l3.4,0.5l0-5.4l1.7,1.9l1.6,4l2.5,0.5c-2-4.5-4.7-10.3-7-14.7
						l-2.3-0.5l3,5.8l-0.1,0c-1.8-1.9-4.1-4.4-6-6.3l-3.1-0.4C-418.6,651-415,653.1-414,655.8"/>
					<path class="st22" d="M-426.1,652.8c-0.3-2.2,2-1.5,3.1-0.7c2.3,1.7,4.6,7,2.2,7.5c-0.1,0-2.4,0.5-3.8-2.5
						c0.7,0.1,1.6,0.1,2.3,0.2l-1.1-2.8l-5.4-0.4l0.8,2c3.2,7.6,10.1,8.5,11.4,5.3c1.3-3.3-3.1-12.4-9.6-13.3
						c-2.8-0.1-3.9,1.5-3.1,4.4C-428.4,652.7-427.1,652.8-426.1,652.8"/>
					<path class="st22" d="M-438.2,652.1c0.6,1.9,2.2,2,2.9,2.1l1.4,0l-1.4-3.6C-437.4,650.6-438.6,650.5-438.2,652.1 M-441.9,652.3
						c-0.7-2-0.4-3.5,1-4.2c1-0.5,1-0.5,7.8-0.2c1.8,4.3,4,10.2,5.6,14.6l-3.6-0.2l-1.7-5l-1.4,0l-0.9,5l-4.1-0.1l1.2-5.6
						C-439,656-440.9,655-441.9,652.3"/>
					<path class="st22" d="M-456,653.9c-1,2.6-2.4,6-3.4,8.5l5.1-0.2l2.1-5.8l1.9,1.8l1.1,4l4.1,0c-1.3-4.4-3.1-10.3-4.6-14.6
						l-3.9,0l1.9,5.8h-0.2c-2-1.7-4.6-4-6.6-5.7l-4.8,0.2C-461.1,649.6-458.2,652.1-456,653.9"/>
					<path class="st22" d="M-472.9,653c0.4-2.4,4.2-2.3,5.8-0.3c1.6,1.9,2.9,7.2-2.2,6.9c-2.3-0.1-2.8-1.5-3-2.1
						c0.9-0.1,2.2-0.2,3.1-0.2l-0.7-2.8l-7.4,0.5l0.4,2c2.1,8,12.5,7,14.8,3c2-3.5-0.2-12.3-9.4-12.1c-4,0.4-6.1,2.3-6,5.4
						C-476,653.3-474.2,653.1-472.9,653"/>
					<path class="st22" d="M-488.7,654.3c0.2,2,2.2,1.8,3.1,1.8l1.8-0.2l-0.7-3.7C-487.2,652.5-488.8,652.7-488.7,654.3
						 M-493.5,655.1c-0.4-2,0.5-3.8,2.4-4.7c1.4-0.7,1.4-0.7,10.2-1.5c1,4.4,2.2,10.3,3.1,14.8l-4.6,0.4l-1-5.1l-1.8,0.2l-2.2,5.5
						l-5.1,0.6l2.7-6.2C-490.8,658.7-492.9,658-493.5,655.1"/>
					<path class="st22" d="M-510.5,659.2c-1.6,2.9-3.7,6.7-5.3,9.6l5.7-1l3.4-6.6l1.9,1.6l0.6,4.1l4.8-0.7c-0.7-4.5-1.6-10.5-2.2-15
						l-4.6,0.7l0.8,5.9l-0.2,0c-1.9-1.5-4.4-3.6-6.2-5.1l-5.4,0.9C-515.3,655.3-512.6,657.5-510.5,659.2"/>
					<path class="st22" d="M-528.9,660.8c0.9-2.9,5.5-3.3,6.7-0.6c2.2,4.7-2.5,8.3-5.7,6.8c-0.8-0.4-0.9-0.9-1-1.5
						c1-0.2,2.3-0.5,3.3-0.7l-0.3-2.9l-7.9,1.7l0.2,2.1c1,7.7,11.3,5.9,14.9,1.6c3.9-4.7,1.6-13.4-6.7-12.3c-0.3,0-0.6,0.1-0.9,0.1
						c-4.3,1-7,3.5-7.4,6.7C-532.2,661.5-530.3,661.1-528.9,660.8"/>
					<path class="st22" d="M-545.3,664.6c-0.1,2.1,2,1.6,2.8,1.4l1.8-0.5l-0.2-3.8C-543.5,662.4-545.2,662.8-545.3,664.6
						 M-550,666.1c-0.1-2.5,1.5-4.4,3.1-5.4c1.5-1,1.5-1,10.6-3.2c0.3,4.6,0.7,10.7,1.1,15.3l-4.7,1.2l-0.4-5.3l-1.8,0.5l-2.7,6.1
						l-5,1.4l3.1-7C-547.8,669.5-549.9,669-550,666.1"/>
					<path class="st22" d="M-565.8,672.9c-1.5,3.3-3.6,7.6-5,10.9l4.7-1.8l3.3-7.4l1.5,1.4l0.2,4.2l4.3-1.4
						c-0.2-4.7-0.4-10.9-0.5-15.5l-4.1,1.3l-0.1,6.2l-0.2,0.1c-1.4-1.4-3.3-3.2-4.7-4.5l-4.5,1.7
						C-569.3,669.4-567.3,671.4-565.8,672.9"/>
					<path class="st22" d="M-580.1,677c0.8-2.8,3.7-4.1,4.7-2.1c1.6,3.1-0.8,9.2-4.1,8.7c-0.9-0.2-1-1.1-1-1.6
						c0.7-0.3,1.7-0.8,2.5-1.2l0-3l-5.7,2.7l0,2.2c0.2,7.9,6.8,4.5,9.3,1.9c4.3-4.6,4.7-14.5-0.6-14.5c-1,0-1.7,0.3-2.5,0.6
						c-3.3,1.6-5.3,4.4-5.9,8C-582.5,678.1-581.1,677.5-580.1,677"/>
					<path class="st22" d="M-591.2,682.8c-0.2,2.2,1.1,1.5,1.6,1.2l1.2-0.7l0.2-4C-590,680.4-591,681-591.2,682.8 M-594.1,684.9
						c0.3-5.5,2.7-6.9,9.2-10.5c-0.3,4.8-0.4,11.2-0.3,16l-3.1,1.7l-0.1-5.5l-1.2,0.7l-1.9,6.7l-3,2l2-7.6
						C-593,688.3-594.2,688-594.1,684.9"/>
					<path class="st22" d="M-603,693.5c-0.8,3.5-1.9,8.2-2.6,11.7l2.3-2.3l1.8-8l0.8,1.3l0.1,4.3l2.3-1.9c0-4.9,0.2-11.4,0.5-16.2
						l-2.3,1.8l-0.5,6.5l-0.1,0.1c-0.6-1.3-1.4-3-1.9-4.4l-2.2,2.2C-604.3,690.2-603.1,692-603,693.5"/>
					<path class="st22" d="M-609.3,699c0.4-2.7,1.1-3.3,1.5-3.5c1.6,0.9-0.1,9.7-1.3,10.2c-0.6,0.3-0.5-1.5-0.5-1.5
						c0.2-0.5,0.7-1,1-1.4l0.1-3.1l-2.1,3.3l-0.1,2.3c0,5.3,1.1,5.1,1.8,4.5c3-2.7,5-18,2.4-18.4c-0.5-0.1-1,0.5-1.2,0.8
						c-1.8,2.6-2.4,6.6-2.7,8.8C-610.2,700.4-609.6,699.7-609.3,699"/>
					<path class="st22" d="M-612.8,706c-0.1,1.5,0,1.5,0,1.6c0.1,0,0.1-0.1,0.2-0.5l0.3-0.8l0.3-4.2
						C-612.4,703.3-612.7,704-612.8,706 M-613.4,708.4c0.4-6.3,1-7.6,2.7-11.6c-0.4,5-0.7,11.6-0.6,16.6l-0.9,2l-0.1-5.6l-0.3,0.8
						l-0.4,7l-0.6,2.2l0.3-7.9C-613.4,711.6-613.6,711.3-613.4,708.4"/>
					<path class="st22" d="M-613.9,724.9v-2c0-3-0.1-7.1,0-10.1l-0.2,6.1L-613.9,724.9L-613.9,724.9"/>
					<path class="st22" d="M-390.4,766c-1.4,2.3-3.2,5.4-4.7,7.7l0.4,0.7l3.1-5.2l-0.9,2l-2.1,3.9l-0.1,0.6
						c2.3-4.6,5.3-10.8,7.2-15.5l0.1-0.6l-2.7,6.5v0c0.8-2.2,1.9-5,2.6-7.3l-0.4-0.7C-388.6,760.5-389.3,763.8-390.4,766"/>
					<path class="st22" d="M-391.7,761.9c1-1.9,1.3-1.6,1.4-1.2c0.3,0.9-3,9.5-4.2,8.8c-0.4-0.2-0.2-1.2,0.6-2.8
						c0.2,0.1,0.4,0.3,0.6,0.4l1.4-2.9l-1.6-1l-1,2.2c-3.9,8.5-1.3,7.7-1.3,7.7c2.3-0.9,8.6-14.1,6.9-16.2c-0.8-0.4-2.2,1.2-3.8,4.5
						C-392.4,761.4-392,761.7-391.7,761.9"/>
					<path class="st22" d="M-396,759.7c-0.8,1.9-0.5,2.4,0,2.5l0.5,0.2l1.7-4C-394.7,758.1-395.2,757.9-396,759.7 M-397.9,759.4
						c0.9-2.3,2-3.9,3.1-4.5c0.8-0.4,0.8-0.4,3.6,0.8c-2,4.8-4.8,11.1-7.1,15.8l-1.2-0.5l2.6-5.1l-0.5-0.2l-3.5,4.8l-1.8-0.6
						l4.1-5.4C-398.9,763.6-399.1,762.4-397.9,759.4"/>
					<path class="st22" d="M-406,762.7l0.3-0.3l0,2l-1.9,4.1l2,0.5c2.1-4.7,4.8-11.1,6.6-16l-2.2-0.5l-2.4,6.7l-0.1,0l0-1.2
						C-404.5,759.5-405.2,761.1-406,762.7"/>
					<path class="st22" d="M-392,708.2l-0.6-0.2l0.7-3.1C-392,706.1-392,707.1-392,708.2 M-393.4,696.1c-0.2-1.4-0.4-3.8,0.7-4.8
						c0.4,3,0.6,6.2,0.7,9.3l-0.3-0.6C-392.7,699.3-393.1,698.2-393.4,696.1"/>
					<path class="st22" d="M-402.9,696.3c-1,2.9-2.2,6.7-3.3,9.5l3.6,0.5l2.1-6.5l1.1,2.3l0.3,4.7l2.7,0.5
						c-0.4-5.4-1.1-12.6-1.9-17.9l-2.6-0.5l1,7.2l-0.1,0c-1.3-2.3-3-5.5-4.4-7.7l-3.5-0.5C-406.4,690.4-404.4,693.7-402.9,696.3"/>
					<path class="st22" d="M-415.6,692.9c0.4-2.7,3-2.2,4.1-0.3c1.7,2.5,2.2,9.7-1.8,8.7c-1.8-0.5-2-2.1-2.1-2.8
						c0.7,0,1.7,0.1,2.4,0.2l-0.3-3.4l-5.9-0.4l0.2,2.5c1.1,9.1,8.1,9.4,10.4,6.6c3.1-3.8,1.8-15.8-5.7-16.9c-3.1-0.1-5,2-5,5.7
						C-418.1,692.8-416.6,692.8-415.6,692.9"/>
					<path class="st22" d="M-428.7,692.3c0.1,2.4,1.9,2.5,2.6,2.5l1.5,0l-0.5-4.5C-427.5,690.3-428.8,690.2-428.7,692.3
						 M-432.8,692.5c-0.3-2.5,0.5-4.5,2.1-5.4c1.2-0.6,1.2-0.6,8.7-0.4c0.7,5.4,1.4,12.5,1.8,17.9l-3.7-0.2l-0.4-6l-1.5,0l-2.2,5.9
						l-4.3,0l2.6-6.7C-430.6,697.1-432.4,696-432.8,692.5"/>
					<path class="st22" d="M-448.2,694.7c-1.5,3-3.4,7.1-5,10.2l5.2-0.2l3.2-6.9l1.7,2.1l0.3,4.7l4.2-0.1
						c-0.4-5.4-1.1-12.5-1.8-17.9l-4.2,0.1l0.9,7.3l-0.2,0c-1.8-2.2-4.1-5-6-7.2l-5.2,0.2C-452.9,689.3-450.1,692.4-448.2,694.7"/>
					<path class="st22" d="M-465.7,693.6c0.6-3,4.6-2.9,6.1-0.4c1.8,2.9,1.5,9.4-3.8,8.2c-1.7-0.4-2-1.6-2.1-2.4
						c1-0.1,2.3-0.2,3.2-0.2l-0.4-3.3l-7.7,0.6l0.3,2.4c1.4,9.4,11.3,8.1,14.4,4.3c3.7-4.7,1.8-15.8-7.8-15.5
						c-4.3,0.5-6.8,2.9-6.9,6.7C-469,693.9-467.1,693.7-465.7,693.6"/>
					<path class="st22" d="M-482.3,695.1c0.1,2.4,2.2,2.2,3.1,2.2l1.8-0.2l-0.5-4.5C-480.7,692.9-482.4,693.1-482.3,695.1
						 M-487.2,696c-0.4-2.9,1.1-4.9,2.6-5.8c1.5-0.8,1.5-0.8,10.9-1.8c0.7,5.3,1.5,12.4,2,17.8l-4.6,0.5l-0.6-5.9l-1.8,0.2l-2.5,6.3
						l-5.1,0.6l2.9-7.1C-484.6,700.2-486.8,699.4-487.2,696"/>
					<path class="st22" d="M-504.8,700.5c-1.5,3.3-3.4,7.6-4.8,10.8l5.7-1l3.2-7.3l2,1.8l0.6,4.6l4.7-0.7
						c-0.7-5.3-1.7-12.4-2.4-17.7l-4.8,0.7l1,7.2l-0.3,0c-2-1.9-4.7-4.4-6.7-6.3l-5.7,1C-510,695.8-507,698.5-504.8,700.5"/>
					<path class="st22" d="M-523.6,702c0.5-3.1,4.7-3.5,6.4-1.3c2,2.7,2.1,9.2-3.5,8.7c-1.8-0.2-2.2-1.3-2.4-2
						c1-0.2,2.3-0.5,3.3-0.7l-0.6-3.3l-7.9,1.7l0.4,2.4c2.1,9.1,12.8,6.7,15.7,1.4c2.5-4.6,0.8-15.3-9.3-13.6
						c-4.4,1.1-7,3.9-6.9,7.7C-526.9,702.7-525,702.3-523.6,702"/>
					<path class="st22" d="M-540.2,705.8c0.3,2.4,2.3,1.9,3.2,1.7l1.8-0.5l-0.8-4.4C-538.7,703.4-540.4,703.8-540.2,705.8
						 M-544.9,707.4c-0.6-2.9,0.8-5,2.2-6.1c1.5-1.1,1.5-1.1,10.8-3.4c0.9,5.2,2.2,12.2,3.2,17.4l-4.6,1.1l-1.2-5.8l-1.8,0.5
						l-1.8,6.5l-4.8,1.3l2-7.4C-542.1,711.3-544.2,710.7-544.9,707.4"/>
					<path class="st22" d="M-560.6,714.4c-0.8,3.4-2,7.9-2.7,11.3l4.6-1.7l1.9-7.7l2,1.5l1.2,4.4l4.2-1.4c-1.2-5.1-2.8-12-3.8-17.1
						l-4.3,1.4l1.5,7l-0.2,0.1c-1.9-1.6-4.5-3.7-6.3-5.3l-4.6,1.8C-565.3,710.5-562.6,712.8-560.6,714.4"/>
					<path class="st22" d="M-575.4,718.4c0-2.9,2.8-3.8,4.2-2.6c2.3,1.9,3.4,9.3-1.1,9.6c-1.4,0.1-1.8-1-2.1-1.7
						c0.7-0.3,1.7-0.8,2.4-1.1l-0.8-3.2l-5.6,2.7l0.6,2.3c2.7,8.3,9.6,4.8,11.5,0.9c2.8-5.7-0.7-16.2-7.6-14
						c-0.2,0.1-0.5,0.2-0.7,0.3c-3.2,1.6-4.8,4.7-4.3,8.5C-577.8,719.5-576.4,718.9-575.4,718.4"/>
					<path class="st22" d="M-586.4,724.2c0.5,2.3,1.8,1.6,2.3,1.3l1.2-0.7l-1.1-4.2C-585.8,721.7-586.8,722.2-586.4,724.2
						 M-589.2,726.3c-0.8-2.8-0.2-5.1,0.6-6.3c0.9-1.3,0.9-1.3,6.8-4.6c1.3,5,3.1,11.7,4.7,16.7l-3,1.6l-1.8-5.5l-1.1,0.7l-0.1,6.6
						l-2.8,1.8l0-7.4C-586.7,729.7-588.3,729.4-589.2,726.3"/>
					<path class="st22" d="M-597.1,734.7c0.2,3.4,0.5,7.9,0.9,11.2l2.1-2.1l-0.5-7.6l1.4,1.3l1.6,4.2l2.2-1.7
						c-1.7-4.8-3.8-11.4-5.2-16.3l-2.3,1.8l1.9,6.7l-0.1,0.1c-1.3-1.4-3.1-3.2-4.3-4.5l-2.2,2.2C-600.3,731.3-598,732.9-597.1,734.7
						"/>
					<path class="st22" d="M-604,740c-0.6-2.9,0.6-3.6,1.2-3.3c1.9,1,3.9,9,1.8,9.7c-0.7,0.2-1.1-0.8-1.4-1.4
						c0.3-0.4,0.6-0.9,0.9-1.3l-1.1-3l-2,3.1l0.8,2.2c3,7.5,5,3.2,5.2,2.7c2-4.7-2.2-17.4-5.3-16.2c-0.4,0.2-0.7,0.5-0.9,0.7
						c-1.2,1.9-1.4,5-0.4,8.7C-604.8,741.3-604.1,740.6-604,740"/>
					<path class="st22" d="M-607.3,746.6c0.4,1.3,0.8,1.8,1.1,1.3c0-0.1,0.1-0.2,0.1-0.2l0.3-0.7l-1.4-3.9
						C-607.6,744-607.8,744.7-607.3,746.6 M-607.7,748.8c-2-5.6-1.4-7.1,0.4-11.2c1.6,4.8,3.8,11,5.8,15.7l-0.8,1.8l-2.2-5.1
						l-0.3,0.7l1.8,6.3l-0.5,2l-2.1-7.1C-606,751.9-606.6,751.8-607.7,748.8"/>
					<path class="st22" d="M-607.2,757.6c1.2,3.2,2.8,7.5,4.2,10.6l-0.5-2.2l-2.8-7.2l0.7,1.1l1.8,3.8l0-1.8
						c-2-4.5-4.3-10.5-5.9-15.2l0,2l2.1,6.3l0,0.1c-0.6-1.2-1.4-2.8-1.9-4l0.5,2.3C-608.4,754.6-607.8,756.3-607.2,757.6"/>
					<path class="st22" d="M-601.5,771.8c-1.2-2.5-4.8-10.6-6.3-14.9l2.4,6.5l0.3,0.7c0.3,0.7,0.7,1.8,1.3,3L-601.5,771.8
						C-601.5,771.8-601.5,771.8-601.5,771.8"/>
					<path class="st22" d="M-413.9,801.3c-0.3,0.3-0.7,0.7-1,1L-413.9,801.3C-413.9,801.3-413.9,801.3-413.9,801.3 M-422.3,809
						l0.3-0.2L-422.3,809L-422.3,809 M-413.5,800.8c1-1,2.5-2.5,3.1-3.2c-2.5,2.5-5.7,5.9-8.3,8.3l-3.2,2.8l0.3-0.5l4.4-3.7
						C-415.6,802.9-414.5,801.8-413.5,800.8"/>
					<path class="st22" d="M-414.5,800.3c-2.2,1.7-5.1,4-7.4,5.6l0.4,0.5l5-3.8l-1.4,1.5l-3.3,2.8l0,0.4c3.8-3.3,8.6-7.9,12.1-11.5
						l0-0.5l-4.8,5v0c1.4-1.7,3.3-3.8,4.6-5.6l-0.4-0.6C-411.2,796-412.9,798.7-414.5,800.3"/>
					<path class="st22" d="M-415.1,797c1-0.9,1.5-1.2,1.8-1.1c0.5,1-5.6,6.9-6.9,6.8c-0.2-0.3,0.1-0.8,1.4-2.1
						c0.1,0.1,0.4,0.2,0.5,0.3l2.3-2.2l-1.4-0.8l-1.7,1.6c-5.2,5.1-4.6,5.8-3.8,5.7c2.3-0.1,13.8-10.4,12.2-12.3
						c-0.8-0.3-2.6,0.9-5.3,3.5C-415.7,796.7-415.3,796.9-415.1,797"/>
					<path class="st22" d="M-418.6,795.3c-1.4,1.5-1.3,1.8-0.9,2l0.5,0.2l3-3.1C-416.9,794.1-417.3,793.9-418.6,795.3 M-420.3,795.1
						c4-4.4,5-4,7.6-3c-3.5,3.7-8.3,8.6-12.1,12l-1-0.4l4.2-3.8l-0.4-0.2l-5,3.6l-1.4-0.4l5.6-4.1
						C-422.6,798.4-422.4,797.5-420.3,795.1"/>
					<path class="st22" d="M-426.9,793.1l-0.7,2l-4,3c-1.2,1.2-2.4,2.3-3.7,3.5l1.2,0.2l6-4.3l-0.8,1.6l-3.1,3.1l1.6,0.3
						c3.6-3.6,8.2-8.5,11.5-12.4l-1.8-0.4l-4.4,5.3l-0.1,0c0.6-1.7,1.6-4,2.1-5.8l-0.3,0C-424.6,790.5-425.7,791.8-426.9,793.1"/>
					<path class="st22" d="M-405,740.3c-1.8,2.7-4.2,6.2-6,8.8l3.4,0.5l4-6l0.4,2.2l-1.2,4.4l2.5,0.5c1.4-5.1,2.9-11.9,4-17
						l-2.6-0.5l-1.3,7.1l-0.1,0c-0.6-2.3-1.3-5.3-2-7.6l-3.5-0.5C-406.7,734.6-405.6,737.8-405,740.3"/>
					<path class="st22" d="M-416.4,737c1-2.6,3.5-2.1,4.1-0.3c1,2.8-1,9.9-4.5,8c-1.1-0.6-0.9-1.8-0.8-2.5c0.7,0.1,1.6,0.1,2.3,0.2
						l0.6-3.2l-5.5-0.4l-0.4,2.3c-1.3,8.8,5.1,8.4,7.5,6.7c5.1-3.5,6.3-15.2,0.3-16.5c-0.2,0-0.4-0.1-0.6-0.1
						c-3.1-0.1-5.4,1.9-6.4,5.5C-418.8,736.8-417.5,736.9-416.4,737"/>
					<path class="st22" d="M-428.8,736.3c-0.5,2.3,1.2,2.4,1.8,2.5l1.4,0l0.6-4.3C-427.2,734.3-428.4,734.3-428.8,736.3
						 M-432.7,736.5c0.3-2.4,1.5-4.4,3.2-5.2c1.3-0.6,1.3-0.6,8.5-0.3c-0.7,5.2-1.8,12-2.8,17.1l-3.4-0.2l1.1-5.6l-1.4,0l-3.4,5.5
						l-3.9-0.1l3.9-6.3C-431.7,740.8-433.1,739.7-432.7,736.5"/>
					<path class="st22" d="M-447.4,738.4c-1.8,2.9-4.2,6.7-6.1,9.6l4.7-0.2l4.1-6.5l1.1,2l-0.6,4.4l3.8,0c0.7-5.1,1.4-12,1.9-17.1
						l-4,0l-0.5,7.1h-0.2c-1.3-2.1-3-4.9-4.3-6.9l-4.9,0.2C-450.8,733.2-448.8,736.1-447.4,738.4"/>
					<path class="st22" d="M-463.2,737.2c0.9-2.9,4.6-2.7,5.6-0.3c1.7,3.9-1.2,9.5-5,7.6c-1-0.5-1.1-1.5-1.1-2.1
						c0.9-0.1,2-0.1,2.9-0.2l0.1-3.2l-7,0.5v2.3c0.3,8.9,9,7.7,12.2,4.2c4-4.4,3.8-15-5-14.9c-4,0.4-6.6,2.8-7.1,6.4
						C-466.2,737.5-464.5,737.3-463.2,737.2"/>
					<path class="st22" d="M-478.3,738.5c0,2.3,1.8,2.2,2.6,2.1l1.6-0.2l-0.1-4.3C-476.8,736.4-478.2,736.5-478.3,738.5
						 M-482.8,739.3c-0.2-2.8,1.3-4.7,2.7-5.5c1.4-0.8,1.4-0.8,10.1-1.6c0.1,5.1,0.2,11.9,0.1,17l-4,0.4l0-5.5l-1.6,0.2l-2.7,5.8
						l-4.5,0.5l3-6.6C-480.6,743.4-482.5,742.5-482.8,739.3"/>
					<path class="st22" d="M-498.5,743.3c-1.3,3-3,7-4.2,10.1l4.8-0.8l2.8-6.8l1.7,1.8l0.5,4.3l4.1-0.6c-0.4-5-1.1-11.8-1.6-16.8
						l-4.4,0.6l0.8,6.9l-0.2,0c-1.8-1.8-4.2-4.3-6-6.1l-5.1,0.9C-503.3,738.8-500.5,741.3-498.5,743.3"/>
					<path class="st22" d="M-515.2,744.4c0.3-3,4.1-3.3,5.7-1.1c1.8,2.5,2.1,8.7-2.8,8.2c-1.6-0.2-2-1.3-2.2-2
						c0.9-0.2,2-0.4,2.9-0.6l-0.6-3.1l-6.9,1.5l0.5,2.2c2.4,8.4,11.4,6.4,13.7,1.6c2.2-4.4,0.4-14.5-8.8-13c-4,1-6.1,3.6-5.8,7.2
						C-518.2,745.1-516.5,744.7-515.2,744.4"/>
					<path class="st22" d="M-529.7,747.8c0.5,2.2,2.3,1.8,3,1.7l1.5-0.4l-1.1-4.1C-528.8,745.5-530.2,745.9-529.7,747.8
						 M-533.8,749.2c-0.9-2.7,0.1-4.7,1.3-5.7c1.2-1,1.2-1,9.5-3c1.2,4.9,2.9,11.4,4.2,16.3l-3.8,0.9l-1.5-5.3l-1.5,0.4l-1,6l-4,1.1
						l1-6.8C-530.8,752.8-532.8,752.2-533.8,749.2"/>
					<path class="st22" d="M-547.2,755.3c-0.2,3.1-0.5,7.1-0.6,10.2l3.8-1.5l0.5-6.9l2,1.4l1.7,4l3.5-1.1
						c-1.8-4.8-4.2-11.1-5.8-15.9l-3.9,1.2l2.5,6.5l-0.2,0.1c-2-1.5-4.8-3.5-6.8-5l-4.1,1.5C-552.4,751.5-549.5,753.7-547.2,755.3"
						/>
					<path class="st22" d="M-560.5,758.6c-0.6-2.8,2-3.3,3.5-2.3c1.9,1.3,5.1,7.6,1.3,8.6c-1.6,0.4-2.4-0.9-2.8-1.5
						c0.6-0.3,1.4-0.7,2-0.9l-1.4-2.9l-4.8,2.3l1.1,2.1c4.4,7.6,9.9,4.4,11,1.1c1.5-5-3.4-15.3-10.5-12.6c-2.8,1.4-3.7,4.2-2.4,7.7
						C-562.5,759.5-561.4,759-560.5,758.6"/>
					<path class="st22" d="M-570,763.5c1,2.1,2.2,1.5,2.6,1.2l1-0.6l-2.1-3.8C-570,761.3-570.8,761.7-570,763.5 M-572.2,765.3
						c-1.5-2.5-1.4-4.6-0.9-5.6c0.6-1.1,0.6-1.1,5.7-4c2.4,4.5,5.6,10.6,8.2,15l-2.4,1.3l-2.9-4.8l-1,0.5l1.4,5.7l-2.3,1.5l-1.8-6.5
						C-569,768.4-570.5,768.1-572.2,765.3"/>
					<path class="st22" d="M-578.3,772.4c1.1,2.9,2.5,6.7,3.8,9.5l1.6-1.7l-2.5-6.5l1.8,1.2l2.6,3.6l1.7-1.4
						c-2.9-4.2-6.6-10-9.3-14.3l-1.9,1.6l3.7,5.9l-0.1,0.1c-1.7-1.2-4.1-2.8-5.8-4.1l-1.8,1.9C-582.7,769.4-579.7,770.6-578.3,772.4
						"/>
					<path class="st22" d="M-584.5,776.8c-1.4-2.5-0.3-3,0.5-2.8c2.3,0.9,6.6,7.7,4.5,8.2c-0.7,0.2-1.5-0.8-1.9-1.2
						c0.2-0.3,0.5-0.7,0.7-1.1l-2-2.5l-1.6,2.6l1.5,1.8c4.4,5.2,6.4,4,6.7,2c0.5-4.3-7.8-15.8-10.8-13.1c-0.1,0.1-0.2,0.2-0.2,0.3
						c-1,1.6-0.3,4.3,1.8,7.4C-585.1,777.9-584.8,777.2-584.5,776.8"/>
					<path class="st22" d="M-587.1,782.2c1.4,1.8,1.7,1.2,1.8,0.9l0.2-0.6l-2.7-3.3C-588.1,780.1-588.3,780.7-587.1,782.2
						 M-587.3,784.1c-3.8-4.5-3.3-5.8-1.9-9.3c3.1,4,7.4,9.3,10.7,13.1l-0.6,1.5l-3.8-4.2l-0.2,0.6l3.5,5.1l-0.3,1.6l-4.1-5.7
						C-584.3,786.6-585.2,786.5-587.3,784.1"/>
					<path class="st22" d="M-586,791.2c2.1,2.5,4.8,5.9,7,8.3l-0.5-1.7l-4.7-5.7l1.3,0.9l3.1,3l-0.1-1.4c-3.5-3.6-7.9-8.5-11.1-12.3
						l0.1,1.6l4.3,5.1l0,0.1c-1.2-1-2.9-2.2-4-3.2l0.5,1.9C-588.9,788.8-587.2,790-586,791.2"/>
					<path class="st22" d="M-584.8,795.7c-1.2-1.4-1.9-2.3-1.8-2.6c0.7,0.3,6.3,6.1,6.5,7.1c-0.7,0-1.5-1.3-1.9-2l-2.1-2.1l1.6,2.5
						l1.5,1.5c2.2,2.1,3.4,3,3.7,2.8c0.2-1.1-10.9-13.3-11.9-13c0,0.2,0,0.2,0.2,0.7c0.9,1.6,2.8,4,5.2,6.5
						C-584.2,796.7-584.5,796.1-584.8,795.7"/>
					<path class="st22" d="M-579.9,801.6c0.1,0.1,0.1,0.1,0.2,0.2c-0.1-0.1-0.2-0.2-0.3-0.3l-0.5-0.6l-2.7-2.7
						c0.2,0.2,0.4,0.4,0.5,0.6L-579.9,801.6C-579.9,801.6-579.9,801.6-579.9,801.6 M-573.1,807.8l1.6,1.4l-5.4-4.7
						c-2.6-2.6-6-6-8.5-8.8l-0.2-0.2l-1.1-1.3c3.2,3.4,7.5,7.7,11,10.8l1.2,1.3l-3.8-3.4l0.5,0.5L-573.1,807.8"/>
					<g>
						<polyline class="st22" points="-459.8,830 -460.6,830.2 -460.6,830.2 -458.1,829.3 -459.8,830 						"/>
						<polyline class="st22" points="-459,829.6 -456.3,828.7 -454.1,827.8 -458.3,829.3 -459,829.6 						"/>
					</g>
					<path class="st22" d="M-447.7,825c1-0.4,1.1-0.5,1.3-0.5c-1,0.6-6.8,3.1-8,3.3c0.2-0.1,0.2-0.2,2.5-1c-0.1,0.1-0.2,0.2-0.3,0.2
						l2.6-1.1l0.7-0.5l-2,0.8c-6.6,2.5-6.6,2.5-6.8,2.7c0,0,0.1,0,0.1,0.1c0.8-0.1,3.5-1,7.8-2.8l5.9-2.8c0.2-0.1,0.4-0.2,0.6-0.3
						c0,0,0.1,0,0.1,0C-443.3,822.9-446.6,824.2-447.7,825"/>
					<path class="st22" d="M-446.6,823.8c-1.3,0.6-2,0.9-2.1,1.1l-0.1,0.1l3.7-1.6c0,0,0.1-0.1,0.1-0.2
						C-445.1,823.2-445.3,823.3-446.6,823.8 M-446.8,823.6c3-1.3,4.4-1.9,4.8-1.9c-0.1,0.2-0.3,0.4-0.4,0.6
						c-4.3,1.9-10.1,4.3-14.6,5.9l0.1-0.3l5-1.7l0-0.1l-5.1,1.5l-0.1-0.3l5.9-1.8C-450.3,825.1-449.6,824.8-446.8,823.6"/>
					<path class="st22" d="M-449.2,823.2c-2.8,0.9-6.6,2.1-9.5,2.9l0.6,0.3l6.4-1.9l-1.8,0.8l-4.2,1.4l0.3,0.3
						c4.7-1.7,10.9-4.2,15.5-6.2l-0.2-0.3l-6.2,2.9l0,0c1.8-1,4.2-2.2,5.9-3.3l-0.5-0.4C-444.8,820.7-447.2,822.3-449.2,823.2"/>
					<path class="st22" d="M-449.5,821.3c1.3-0.5,1.9-0.7,2.2-0.7c0,0,0,0.1,0,0.1c-0.8,1-8.6,4.1-9.1,3.7c0,0,1.2-1.3,2.5-0.9
						l3-1.2l-1.2-0.4l-2.2,0.9c-4.5,1.9-5.8,2.5-5.9,2.9c1.2,1.2,16.4-4.8,16.6-6.6c0-0.1-0.1-0.1-0.1-0.2c-0.7-0.2-2.7,0.5-6.5,2.1
						C-450,821.1-449.7,821.3-449.5,821.3"/>
					<path class="st22" d="M-452.4,820.4c-1.4,0.7-1.9,1-1.7,1.1c0,0,0,0,0.1,0l0.4,0.1l3.9-1.8
						C-450.3,819.6-450.6,819.5-452.4,820.4 M-453.7,820.3c5.4-2.7,5.9-2.5,8.1-1.9c-4.7,2.2-11,5-15.8,6.9l-0.8-0.2l5.4-2l-0.4-0.1
						l-6,2l-1-0.2l6.8-2.3C-457.2,822.2-456.7,821.8-453.7,820.3"/>
					<path class="st22" d="M-459.7,820.4c-3,1.1-6.9,2.7-9.9,3.7l1.4,0.1l6.8-2.5l-1.4,0.9l-4.1,1.7l1.1,0.1
						c4.7-2,10.8-4.9,15.3-7.3l-1.3-0.2l-6,3.3l-0.1,0c1.3-1.1,3.2-2.4,4.4-3.5l-1.7-0.2C-456.4,817.7-458.1,819.5-459.7,820.4"/>
					<path class="st22" d="M-469.1,823.5c2.6-0.8,7.7-3,10.6-5.3C-461.9,820.2-465.4,822-469.1,823.5"/>
				</g>
			</g>
		</g>
		<g class="st0">
			<g>
				<defs>
					<path id="SVGID_5_" d="M-554.8,820.8c-2-1.2-4.7-2.8-6.7-4.1c-3.1-2.1-7.1-5.1-10-7.4c-4-3.2-8.8-8.1-12.3-11.7
						c-2.3-2.4-5.2-5.9-7.1-8.6c-1.8-2.5-4.2-5.9-5.8-8.6c-1.4-2.3-3.2-5.4-4.4-7.8c-1.4-2.7-3.1-6.4-4.3-9.2c-1-2.5-2.2-6-3.1-8.6
						c-1-2.9-2.1-6.8-2.7-9.8c-1.1-5.5-2.3-13-2.7-18.6c-0.4-5.1-0.5-12.1,0.2-17.2c0.4-3.1,0.7-7.2,1.3-10.2
						c0.6-2.7,1.2-6.4,1.9-9.1c0.8-2.9,1.8-6.8,2.9-9.7c1-2.5,2.2-6,3.3-8.4c1.2-2.8,3-6.4,4.5-9c1.3-2.3,3.1-5.4,4.6-7.6
						c1.7-2.6,4-6,6-8.3c3.3-4,7.8-9.2,11.5-12.7c2.2-2.1,5.3-4.8,7.7-6.7c1.9-1.5,4.4-3.4,6.4-4.8c2.7-1.8,6.3-4.1,9.1-5.7
						c1.8-1,4.2-2.3,6-3.2c1.8-0.8,4.2-2,6.1-2.8c1.5-0.7,3.6-1.4,5.2-2c2.5-1,6-2,8.6-2.8c9.8-2.7,17.9-3.6,21.9-3.9
						c3.4-0.3,12.3-0.9,23.7,0.5c5.6,0.7,9.6,1.6,9.6,1.6c2.4,0.5,5.5,1.3,7.9,1.9c1.6,0.4,3.6,1.1,5.1,1.6
						c5.3,1.7,8.5,3.2,11.9,4.7c2.8,1.2,6.4,3.2,9.1,4.6c-16.5-9.4-36.3-13.5-57.5-10.6c21.3-2.9,41,1.2,57.5,10.6
						c4.1,2.5,9.5,5.8,13.3,8.8c2.6,2,6,4.8,8.4,7.1c1.9,1.7,4.4,4.2,6.1,6.1c2.2,2.4,5,5.6,7,8.1c1.6,2.1,3.7,5,5.2,7.2
						c1.7,2.6,3.8,6.1,5.3,8.8c1.3,2.4,2.8,5.6,4,8.1c1.3,2.7,2.7,6.5,3.7,9.4c0.9,2.6,1.9,6.2,2.7,8.8c0.9,2.9,1.7,6.9,2.1,10
						c0.4,2.8,1,6.5,1.2,9.3c0.3,3.1,0.4,7.3,0.4,10.4c0,5.7-0.7,13.3-1.6,18.9c-0.5,3.4-1.4,7.8-2.4,11.1c-0.8,2.6-1.8,6.2-2.7,8.8
						c-1,2.8-2.4,6.6-3.7,9.3c-1.2,2.4-2.7,5.7-4,8c-1.5,2.6-3.5,6-5.2,8.5c-4.9,7.3-9.6,12.6-11.7,14.8c-3,3.2-7.2,7.5-13.8,12.7
						c-1.9,1.5-4.4,3.4-6.4,4.7c-2.7,1.8-6.4,4-9.2,5.6c-4.6,2.7-11.8,5.7-13.3,6.3c-2.5,1-5.9,2.2-8.5,3c-2.5,0.8-5.9,1.7-8.4,2.3
						c-14.2,3.3-28.7,3.8-43.2,1.7c-5-0.7-8.9-1.7-10.6-2.1c-4.6-1.1-9.1-2.6-9.1-2.6c-4.5-1.5-6.4-2.3-11.9-4.7
						C-548.5,824.2-552.1,822.3-554.8,820.8z"/>
				</defs>
				<clipPath id="SVGID_6_">
					<use xlink:href="#SVGID_5_"  style="overflow:visible;"/>
				</clipPath>
				<g class="st23">
					<path d="M-554.8,820.8c-20.3-11.8-35.4-27.5-46.3-48.2c-16.3-30.8-12.7-62-12.5-63.3c2.3-19,3.6-22.3,9.5-37.4
						c2.1-5.3,9-17.7,15-25c7-8.4,25.5-30.8,60.7-40.6c15-4.2,30.3-5.3,45.6-3.5c22.4,2.7,37.2,10.9,43.6,14.4
						c-16.5-9.4-36.3-13.5-57.5-10.6c21.3-2.9,41,1.2,57.5,10.6c7.1,4.3,17.8,10.9,27.8,21.9c10.7,11.7,15.8,20.4,21.4,32.2
						c2.5,5.2,4.9,12.6,6.4,18.2c1.5,5.7,2.6,13.5,3.3,19.3c0.4,2.7,1.3,12.8-1.1,29.3c-1.2,8-6.8,36.1-29.6,60.4
						c-16.5,17.6-36.6,29.2-59.7,34.5C-511.4,842.4-543.1,827.6-554.8,820.8"/>
					<path d="M-439.3,617.2c7.5,4.5,13.5,8.5,21.7,15.8l6.1,6.1c2.1,2.4,5,5.6,7,8.1l5.2,7.2c1.6,2.6,3.8,6.1,5.3,8.8l4,8.1
						c1.1,2.8,2.7,6.5,3.7,9.4l2.7,8.8c0.6,3,1.6,7,2.1,10l1.2,9.3c0.1,3.1,0.4,7.3,0.4,10.4l-0.4,9.5c-0.4,3.4-0.9,8-1.5,11.4l-2,9
						c-0.9,2.9-2,6.8-3,9.6l-3.4,8.4c-1.4,2.7-3.1,6.3-4.5,9l-4.6,7.6c-1.8,2.5-4.1,5.9-6,8.3l-5.6,6.5c-2.3,2.3-5.3,5.4-7.7,7.5
						l-6.2,5.2c-2.9,2.1-6.8,4.9-9.7,6.8l-5.9,3.5c-7.7,4-8.2,4.2-13.3,6.3l-4.3,1.6c-5.9,1.9-12,4-23.2,5.6l-3,0.4
						c-0.9,0.1-2.1,0.2-3,0.3l-2.7,0.2c-0.8,0-1.9,0.1-2.7,0.1l-2.6,0.1c-0.8,0-1.8,0-2.5,0l-2.5,0c-0.8,0-1.8-0.1-2.5-0.1l-2.6-0.2
						c-0.8-0.1-1.9-0.2-2.7-0.2l-2.9-0.3c-0.9-0.1-2.1-0.3-2.9-0.4l-3.2-0.5c-1-0.2-2.4-0.5-3.5-0.7l-3.9-0.9
						c-1.3-0.3-3-0.8-4.3-1.1l-4.8-1.5c-1.8-0.6-4.2-1.5-5.9-2.1l-6-2.5c-2.7-1.3-6.4-3.2-9.1-4.6l-6.7-4.1c-3-2.2-7.1-5.1-10-7.4
						l-6.3-5.6c-2.3-2.3-5.4-5.5-7.6-7.9l-5.5-6.8c-1.8-2.6-4.2-5.9-5.8-8.6l-4.4-7.8c-1.3-2.8-3.1-6.4-4.3-9.2l-3.1-8.6
						c-0.8-2.9-2-6.8-2.7-9.8l-1.7-9.2c-0.5-5.1-1-11.9-1.2-17l0.4-9.5c0.4-3.1,0.8-7.2,1.3-10.2l1.9-9.1c0.9-2.9,1.9-6.8,2.9-9.7
						l3.3-8.4c1.3-2.7,3-6.4,4.5-9l4.6-7.6c1.8-2.5,4.1-5.9,6-8.3l5.6-6.6c2.3-2.3,5.2-5.4,7.6-7.6l6.2-5.3c2.8-2.1,6.6-4.9,9.6-6.9
						l5.9-3.6c7.9-4.1,8.2-4.3,13-6.3l4.3-1.7c7.7-2.6,13.2-4.3,24.5-6l3-0.4c0.9-0.1,2.1-0.2,3-0.3l2.7-0.2c0.8,0,1.9-0.1,2.7-0.1
						l2.6-0.1c0.8,0,1.8,0,2.5,0l2.5,0c0.8,0,1.8,0.1,2.5,0.1l2.6,0.2c0.8,0.1,1.9,0.2,2.7,0.2l2.9,0.3c0.9,0.1,2.1,0.3,3,0.4
						l3.2,0.5c1,0.2,2.4,0.5,3.5,0.7l3.9,0.9c1.3,0.3,3,0.8,4.3,1.1l4.8,1.5c1.8,0.6,4.2,1.5,5.9,2.1l6,2.5
						C-445.6,613.9-442,615.7-439.3,617.2c-16.5-9.4-36.3-13.5-57.5-10.6l0,0c-101.9,30.2-65.9,140-3.5,170.8
						c71,35,136.6-21.1,113.2-96.9c-8.6-27.8-34.3-74.5-109.7-74C-475.6,603.8-455.8,607.8-439.3,617.2"/>
					<path d="M-439.3,617.2c7.5,4.5,13.5,8.5,21.7,15.8l6.1,6.1c2.1,2.4,5,5.6,7,8.1l5.2,7.2c1.6,2.6,3.8,6.1,5.3,8.8l4,8.1
						c1.1,2.8,2.7,6.5,3.7,9.4l2.7,8.8c0.6,3,1.6,7,2.1,10l1.2,9.3c0.1,3.1,0.4,7.3,0.4,10.4l-0.4,9.5c-0.4,3.4-0.9,8-1.5,11.4l-2,9
						c-0.9,2.9-2,6.8-3,9.6l-3.4,8.4c-1.4,2.7-3.1,6.3-4.5,9l-4.6,7.6c-1.8,2.5-4.1,5.9-6,8.3l-5.6,6.5c-2.3,2.3-5.3,5.4-7.7,7.5
						l-6.2,5.2c-2.9,2.1-6.8,4.9-9.7,6.8l-5.9,3.5c-7.7,4-8.2,4.2-13.3,6.3l-4.3,1.6c-5.9,1.9-12,4-23.2,5.6l-3,0.4
						c-0.9,0.1-2.1,0.2-3,0.3l-2.7,0.2c-0.8,0-1.9,0.1-2.7,0.1l-2.6,0.1c-0.8,0-1.8,0-2.5,0l-2.5,0c-0.8,0-1.8-0.1-2.5-0.1l-2.6-0.2
						c-0.8-0.1-1.9-0.2-2.7-0.2l-2.9-0.3c-0.9-0.1-2.1-0.3-2.9-0.4l-3.2-0.5c-1-0.2-2.4-0.5-3.5-0.7l-3.9-0.9
						c-1.3-0.3-3-0.8-4.3-1.1l-4.8-1.5c-1.8-0.6-4.2-1.5-5.9-2.1l-6-2.5c-2.7-1.3-6.4-3.2-9.1-4.6l-6.7-4.1c-3-2.2-7.1-5.1-10-7.4
						l-6.3-5.6c-2.3-2.3-5.4-5.5-7.6-7.9l-5.5-6.8c-1.8-2.6-4.2-5.9-5.8-8.6l-4.4-7.8c-1.3-2.8-3.1-6.4-4.3-9.2l-3.1-8.6
						c-0.8-2.9-2-6.8-2.7-9.8l-1.7-9.2c-0.5-5.1-1-11.9-1.2-17l0.4-9.5c0.4-3.1,0.8-7.2,1.3-10.2l1.9-9.1c0.9-2.9,1.9-6.8,2.9-9.7
						l3.3-8.4c1.3-2.7,3-6.4,4.5-9l4.6-7.6c1.8-2.5,4.1-5.9,6-8.3l5.6-6.6c2.3-2.3,5.2-5.4,7.6-7.6l6.2-5.3c2.8-2.1,6.6-4.9,9.6-6.9
						l5.9-3.6c7.9-4.1,8.2-4.3,13-6.3l4.3-1.7c7.7-2.6,13.2-4.3,24.5-6l3-0.4c0.9-0.1,2.1-0.2,3-0.3l2.7-0.2c0.8,0,1.9-0.1,2.7-0.1
						l2.6-0.1c0.8,0,1.8,0,2.5,0l2.5,0c0.8,0,1.8,0.1,2.5,0.1l2.6,0.2c0.8,0.1,1.9,0.2,2.7,0.2l2.9,0.3c0.9,0.1,2.1,0.3,3,0.4
						l3.2,0.5c1,0.2,2.4,0.5,3.5,0.7l3.9,0.9c1.3,0.3,3,0.8,4.3,1.1l4.8,1.5c1.8,0.6,4.2,1.5,5.9,2.1l6,2.5
						C-445.6,613.9-442,615.7-439.3,617.2c-5.7-3.3-11.8-5.9-18.3-7.8c-0.2-0.1-0.5-0.2-0.7-0.2c-85.9-23.9-131.2,59.8-91.3,127.8
						c44.8,76.3,148.9,72.7,166.2-5.8c11-49.8-22.3-104.4-74.3-121.8C-451.2,611.3-445,614-439.3,617.2"/>
					<g>
						<path d="M-386.4,680.7c1.3,3.8,3.2,9.6,4.8,18.8l1.2,9.3c0.1,3.1,0.4,7.3,0.4,10.4l-0.4,9.5c-0.4,3.4-0.9,8-1.5,11.4l-2,9
							c-0.9,2.9-2,6.8-3,9.6l-3.4,8.4c-1.4,2.7-3.1,6.3-4.5,9l-4.6,7.6c-1.8,2.5-4.1,5.9-6,8.3l-5.6,6.5c-2.3,2.3-5.3,5.4-7.7,7.5
							l-6.2,5.2c-2.9,2.1-6.8,4.9-9.7,6.8l-5.9,3.5c-7.7,4-8.2,4.2-13.3,6.3l-4.3,1.6c-5.9,1.9-12,4-23.2,5.6l-3,0.4
							c-0.9,0.1-2.1,0.2-3,0.3l-2.7,0.2c-0.8,0-1.9,0.1-2.7,0.1l-2.6,0.1c-0.8,0-1.8,0-2.5,0l-2.5,0c-0.8,0-1.8-0.1-2.5-0.1
							l-2.6-0.2c-0.8-0.1-1.9-0.2-2.7-0.2l-2.9-0.3c-0.9-0.1-2.1-0.3-3-0.4l-3.2-0.5c-1-0.2-2.4-0.5-3.5-0.7l-3.9-0.9
							c-1.3-0.3-3-0.8-4.3-1.1l-4.8-1.5c-1.8-0.6-4.2-1.5-5.9-2.1l-6-2.5c-2.7-1.3-6.4-3.2-9.1-4.6l-6.7-4.1c-3-2.2-7.1-5.1-10-7.4
							l-6.3-5.6c-2.3-2.3-5.4-5.5-7.6-7.9l-5.5-6.8c-1.8-2.6-4.2-5.9-5.8-8.6l-4.4-7.8c-1.3-2.8-3.1-6.4-4.3-9.2l-3.1-8.6
							c-0.8-2.9-2-6.8-2.7-9.8l-1.7-9.2c-0.5-5.1-1-11.9-1.2-17l0.4-9.5c0.4-3.1,0.8-7.2,1.3-10.2l1.9-9.1c0.9-2.9,1.9-6.8,2.9-9.7
							l3.3-8.4c1.3-2.7,3-6.4,4.5-9l4.6-7.6c1.8-2.5,4.1-5.9,6-8.3l5.6-6.6c2.3-2.3,5.2-5.4,7.6-7.6l6.2-5.3
							c2.8-2.1,6.6-4.9,9.6-6.9l5.9-3.6c7.9-4.1,8.2-4.3,13-6.3l4.3-1.7c7.7-2.6,13.2-4.3,24.5-6l3-0.4c0.9-0.1,2.1-0.2,3-0.3
							l2.7-0.2c0.8,0,1.9-0.1,2.7-0.1l2.6-0.1c0.8,0,1.8,0,2.5,0l2.5,0c0.8,0,1.8,0.1,2.5,0.1l2.6,0.2c0.8,0.1,1.9,0.2,2.7,0.2
							l2.9,0.3c0.9,0.1,2.1,0.3,3,0.4l3.2,0.5c1,0.2,2.4,0.5,3.5,0.7l3.9,0.9c1.3,0.3,3,0.8,4.3,1.1l4.8,1.5
							c1.8,0.6,4.2,1.5,5.9,2.1l6,2.5c2.7,1.3,6.4,3.2,9.1,4.6c-0.7-0.4-1.4-0.8-2-1.1c-2.1-1-4.9-2.4-7-3.5
							c-83.2-36.2-142.5,39-112.8,111.4c36,87.7,144.2,92.6,172.9,26.7c13.3-30.5,5.9-59.5,0.3-74.1
							C-387.5,677.9-386.8,679.5-386.4,680.7"/>
						<path d="M-439.3,617.2c1.8,1,4.1,2.5,5.9,3.6c-2.1-1.3-4.9-3-7-4.2c-0.3-0.1-0.6-0.3-0.9-0.5
							C-440.7,616.5-440,616.8-439.3,617.2"/>
					</g>
					<path d="M-381.6,699.5c0.8,5.6,1.6,10.8,1.6,19.7l-0.4,9.5c-0.4,3.4-0.9,8-1.5,11.4l-2,9c-0.9,2.9-2,6.8-3,9.6l-3.4,8.4
						c-1.4,2.7-3.1,6.3-4.5,9l-4.6,7.6c-1.8,2.5-4.1,5.9-6,8.3l-5.6,6.5c-2.3,2.3-5.3,5.4-7.7,7.5l-6.2,5.2
						c-2.9,2.1-6.8,4.9-9.7,6.8l-5.9,3.5c-7.7,4-8.2,4.2-13.3,6.3l-4.3,1.6c-5.9,1.9-12,4-23.2,5.6l-3,0.4c-0.9,0.1-2.1,0.2-3,0.3
						l-2.7,0.2c-0.8,0-1.9,0.1-2.7,0.1l-2.6,0.1c-0.8,0-1.8,0-2.5,0l-2.5,0c-0.8,0-1.8-0.1-2.5-0.1l-2.6-0.2
						c-0.8-0.1-1.9-0.2-2.7-0.2l-2.9-0.3c-0.9-0.1-2.1-0.3-3-0.4l-3.2-0.5c-1-0.2-2.4-0.5-3.5-0.7l-3.9-0.9c-1.3-0.3-3-0.8-4.3-1.1
						l-4.8-1.5c-1.8-0.6-4.2-1.5-5.9-2.1l-6-2.5c-2.7-1.3-6.4-3.2-9.1-4.6l-6.7-4.1c-3-2.2-7.1-5.1-10-7.4l-6.3-5.6
						c-2.3-2.3-5.4-5.5-7.6-7.9l-5.5-6.8c-1.8-2.6-4.2-5.9-5.8-8.6l-4.4-7.8c-1.3-2.8-3.1-6.4-4.3-9.2l-3.1-8.6
						c-0.8-2.9-2-6.8-2.7-9.8l-1.7-9.2c-0.5-5.1-1-11.9-1.2-17l0.4-9.5c0.4-3.1,0.8-7.2,1.3-10.2l1.9-9.1c0.9-2.9,1.9-6.8,2.9-9.7
						l3.3-8.4c1.3-2.7,3-6.4,4.5-9l4.6-7.6c1.8-2.5,4.1-5.9,6-8.3l5.6-6.6c2.3-2.3,5.2-5.4,7.6-7.6l6.2-5.3c2.8-2.1,6.6-4.9,9.6-6.9
						l5.9-3.6c7.9-4.1,8.2-4.3,13-6.3l4.3-1.7c7.7-2.6,13.2-4.3,24.5-6l3-0.4c0.9-0.1,2.1-0.2,3-0.3l2.7-0.2c0.8,0,1.9-0.1,2.7-0.1
						l2.6-0.1c0.8,0,1.8,0,2.5,0l2.5,0c0.8,0,1.8,0.1,2.5,0.1l2.6,0.2c0.8,0.1,1.9,0.2,2.7,0.2l2.9,0.3c0.9,0.1,2.1,0.3,3,0.4
						l3.2,0.5c1,0.2,2.4,0.5,3.5,0.7l3.9,0.9c1.3,0.3,3,0.8,4.3,1.1l4.8,1.5l2.8,1l-6.1-2c-86.8-24.7-134.9,61.9-95.8,132
						c46.4,83.3,152.7,75.9,174.6,6.9c6.4-20,4.8-36.3,3.1-46.8C-381.7,699.1-381.7,699.3-381.6,699.5"/>
					<path d="M-380,719.2c-0.1,6-0.2,11.2-1.9,20.9l-2,9c-0.9,2.9-2,6.8-3,9.6l-3.4,8.4c-1.4,2.7-3.1,6.3-4.5,9l-4.6,7.6
						c-1.8,2.5-4.1,5.9-6,8.3l-5.6,6.5c-2.3,2.3-5.3,5.4-7.7,7.5l-6.2,5.2c-2.9,2.1-6.8,4.9-9.7,6.8l-5.9,3.5
						c-7.7,4-8.2,4.2-13.3,6.3l-4.3,1.6c-5.9,1.9-12,4-23.2,5.6l-3,0.4c-0.9,0.1-2.1,0.2-3,0.3l-2.7,0.2c-0.8,0-1.9,0.1-2.7,0.1
						l-2.6,0.1c-0.8,0-1.8,0-2.5,0l-2.5,0c-0.8,0-1.8-0.1-2.5-0.1l-2.6-0.2c-0.8-0.1-1.9-0.2-2.7-0.2l-2.9-0.3
						c-0.9-0.1-2.1-0.3-3-0.4l-3.2-0.5c-1-0.2-2.4-0.5-3.5-0.7l-3.9-0.9c-1.3-0.3-3-0.8-4.3-1.1l-4.8-1.5c-1.8-0.6-4.2-1.5-5.9-2.1
						l-6-2.5c-2.7-1.3-6.4-3.2-9.1-4.6l-6.7-4.1c-3-2.2-7.1-5.1-10-7.4l-6.3-5.6c-2.3-2.3-5.4-5.5-7.6-7.9l-5.5-6.8
						c-1.8-2.6-4.2-5.9-5.8-8.6l-4.4-7.8c-1.3-2.8-3.1-6.4-4.3-9.2l-3.1-8.6c-0.8-2.9-2-6.8-2.7-9.8l-1.7-9.2
						c-0.5-5.1-1-11.9-1.2-17l0.4-9.5c0.4-3.1,0.8-7.2,1.3-10.2l1.9-9.1c0.9-2.9,1.9-6.8,2.9-9.7l3.3-8.4c1.3-2.7,3-6.4,4.5-9
						l4.6-7.6c1.8-2.5,4.1-5.9,6-8.3l5.6-6.6c2.3-2.3,5.2-5.4,7.6-7.6l6.2-5.3c2.8-2.1,6.6-4.9,9.6-6.9l5.9-3.6
						c7.9-4.1,8.2-4.3,13-6.3l4.3-1.7c7.7-2.6,13.2-4.3,24.5-6l3-0.4c0.9-0.1,2.1-0.2,3-0.3l2.7-0.2c0.8,0,1.9-0.1,2.7-0.1l2.6-0.1
						c0.8,0,1.8,0,2.5,0l2.5,0c0.8,0,1.8,0.1,2.5,0.1l2.6,0.2c0.8,0.1,1.9,0.2,2.7,0.2l2.9,0.3c0.9,0.1,2.1,0.3,3,0.4l3.2,0.5
						l0.9,0.2l-0.9-0.2c-92.3-14.4-128.7,87.5-76.7,154.3c55.9,71.9,162.3,56.2,172.5-25.4c1-7.7,1-11.4,1-14.3
						C-380,718.6-380,718.9-380,719.2"/>
					<path d="M-381.9,740.1c-0.8,4-1.9,10-5,18.7l-3.4,8.4c-1.4,2.7-3.1,6.3-4.5,9l-4.6,7.6c-1.8,2.5-4.1,5.9-6,8.3l-5.6,6.5
						c-2.3,2.3-5.3,5.4-7.7,7.5l-6.2,5.2c-2.9,2.1-6.8,4.9-9.7,6.8l-5.9,3.5c-7.7,4-8.2,4.2-13.3,6.3l-4.3,1.6
						c-5.9,1.9-12,4-23.2,5.6l-3,0.4c-0.9,0.1-2.1,0.2-3,0.3l-2.7,0.2c-0.8,0-1.9,0.1-2.7,0.1l-2.6,0.1c-0.8,0-1.8,0-2.5,0l-2.5,0
						c-0.8,0-1.8-0.1-2.5-0.1l-2.6-0.2c-0.8-0.1-1.9-0.2-2.7-0.2l-2.9-0.3c-0.9-0.1-2.1-0.3-2.9-0.4l-3.2-0.5
						c-1-0.2-2.4-0.5-3.5-0.7l-3.9-0.9c-1.3-0.3-3-0.8-4.3-1.1l-4.8-1.5c-1.8-0.6-4.2-1.5-5.9-2.1l-6-2.5c-2.7-1.3-6.4-3.2-9.1-4.6
						l-6.7-4.1c-3-2.2-7.1-5.1-10-7.4l-6.3-5.6c-2.3-2.3-5.4-5.5-7.6-7.9l-5.5-6.8c-1.8-2.6-4.2-5.9-5.8-8.6l-4.4-7.8
						c-1.3-2.8-3.1-6.4-4.3-9.2l-3.1-8.6c-0.8-2.9-2-6.8-2.7-9.8l-1.7-9.2c-0.5-5.1-1-11.9-1.2-17l0.4-9.5c0.4-3.1,0.8-7.2,1.3-10.2
						l1.9-9.1c0.9-2.9,1.9-6.8,2.9-9.7l3.3-8.4c1.3-2.7,3-6.4,4.5-9l4.6-7.6c1.8-2.5,4.1-5.9,6-8.3l5.6-6.6c2.3-2.3,5.2-5.4,7.6-7.6
						l6.2-5.3c2.8-2.1,6.6-4.9,9.6-6.9l5.9-3.6c7.9-4.1,8.2-4.3,13-6.3l4.3-1.7c7.7-2.6,13.2-4.3,24.5-6l3-0.4
						c0.9-0.1,2.1-0.2,3-0.3l2.7-0.2c0.8,0,1.9-0.1,2.7-0.1l2.6-0.1c0.8,0,1.8,0,2.5,0c0.6,0,1.5,0,2.1,0c-0.6,0-1.4,0-2,0
						c-87,0.4-117.3,105.4-49.9,172.8c55.1,55.1,148.4,45.8,164.6-38.8C-381.5,737.2-381.7,738.9-381.9,740.1"/>
					<path d="M-387,758.8c-1.3,3.5-3.4,9.2-8,17.4l-4.6,7.6c-1.8,2.5-4.1,5.9-6,8.3l-5.6,6.5c-2.3,2.3-5.3,5.4-7.7,7.5l-6.2,5.2
						c-2.9,2.1-6.8,4.9-9.7,6.8l-5.9,3.5c-7.7,4-8.2,4.2-13.3,6.3l-4.3,1.6c-5.9,1.9-12,4-23.2,5.6l-3,0.4c-0.9,0.1-2.1,0.2-3,0.3
						l-2.7,0.2c-0.8,0-1.9,0.1-2.7,0.1l-2.6,0.1c-0.8,0-1.8,0-2.5,0l-2.5,0c-0.8,0-1.8-0.1-2.5-0.1l-2.6-0.2
						c-0.8-0.1-1.9-0.2-2.7-0.2l-2.9-0.3c-0.9-0.1-2.1-0.3-2.9-0.4l-3.2-0.5c-1-0.2-2.4-0.5-3.5-0.7l-3.9-0.9
						c-1.3-0.3-3-0.8-4.3-1.1l-4.8-1.5c-1.8-0.6-4.2-1.5-5.9-2.1l-6-2.5c-2.7-1.3-6.4-3.2-9.1-4.6l-6.7-4.1c-3-2.2-7.1-5.1-10-7.4
						l-6.3-5.6c-2.3-2.3-5.4-5.5-7.6-7.9l-5.5-6.8c-1.8-2.6-4.2-5.9-5.8-8.6l-4.4-7.8c-1.3-2.8-3.1-6.4-4.3-9.2l-3.1-8.6
						c-0.8-2.9-2-6.8-2.7-9.8l-1.7-9.2c-0.5-5.1-1-11.9-1.2-17l0.4-9.5c0.4-3.1,0.8-7.2,1.3-10.2l1.9-9.1c0.9-2.9,1.9-6.8,2.9-9.7
						l3.3-8.4c1.3-2.7,3-6.4,4.5-9l4.6-7.6c1.8-2.5,4.1-5.9,6-8.3l5.6-6.6c2.3-2.3,5.2-5.4,7.6-7.6l6.2-5.3c2.8-2.1,6.6-4.9,9.6-6.9
						l5.9-3.6c7.9-4.1,8.2-4.3,13-6.3l4.3-1.7c6.3-2.1,12.2-4.2,23.8-6l-1.8,0.3c-89.4,15.5-100.3,132.5-17.8,189.7
						c57.8,40,128.1,21.4,147.5-39C-385.9,755.5-386.5,757.4-387,758.8"/>
					<path d="M-394.9,776.2c-2.4,4.1-5.1,8.8-10.7,15.8l-5.6,6.5c-2.3,2.3-5.3,5.4-7.7,7.5l-6.2,5.2c-2.9,2.1-6.8,4.9-9.7,6.8
						l-5.9,3.5c-7.7,4-8.2,4.2-13.3,6.3l-4.3,1.6c-5.9,1.9-12,4-23.2,5.6l-3,0.4c-0.9,0.1-2.1,0.2-3,0.3l-2.7,0.2
						c-0.8,0-1.9,0.1-2.7,0.1l-2.6,0.1c-0.8,0-1.8,0-2.5,0l-2.5,0c-0.8,0-1.8-0.1-2.5-0.1l-2.6-0.2c-0.8-0.1-1.9-0.2-2.7-0.2
						l-2.9-0.3c-0.9-0.1-2.1-0.3-2.9-0.4l-3.2-0.5c-1-0.2-2.4-0.5-3.5-0.7l-3.9-0.9c-1.3-0.3-3-0.8-4.3-1.1l-4.8-1.5
						c-1.8-0.6-4.2-1.5-5.9-2.1l-6-2.5c-2.7-1.3-6.4-3.2-9.1-4.6l-6.7-4.1c-3-2.2-7.1-5.1-10-7.4l-6.3-5.6c-2.3-2.3-5.4-5.5-7.6-7.9
						l-5.5-6.8c-1.8-2.6-4.2-5.9-5.8-8.6l-4.4-7.8c-1.3-2.8-3.1-6.4-4.3-9.2l-3.1-8.6c-0.8-2.9-2-6.8-2.7-9.8l-1.7-9.2
						c-0.5-5.1-1-11.9-1.2-17l0.4-9.5c0.4-3.1,0.8-7.2,1.3-10.2l1.9-9.1c0.9-2.9,1.9-6.8,2.9-9.7l3.3-8.4c1.3-2.7,3-6.4,4.5-9
						l4.6-7.6c1.8-2.5,4.1-5.9,6-8.3l5.6-6.6c2.3-2.3,5.2-5.4,7.6-7.6l6.2-5.3c2.8-2.1,6.6-4.9,9.6-6.9l5.9-3.6
						c7.9-4.1,8.2-4.3,13-6.3l4.3-1.7c1.8-0.6,4.2-1.4,6-2l-0.1,0c-87.7,27.8-84.3,152,5.4,198.5c61.2,31.7,111.3,6,132-31.3
						C-394.2,774.9-394.6,775.6-394.9,776.2"/>
					<path d="M-445.3,615.6c73.5,34.6,84.1,136.6,17,162.9c-70.4,27.6-151.1-56.3-121.7-126.4C-531.1,607.3-481.9,598.4-445.3,615.6
						"/>
					<path d="M-435.2,621.7c70.8,43.1,67.3,142.5-5.5,156.5c-76.8,14.7-141.7-80.5-96.5-141.5C-511.4,601.9-466.4,602.8-435.2,621.7
						"/>
					<path d="M-426.1,628.8c63.8,49,46,133.6-13.9,145.4c-66.7,13.1-137.1-69.8-94.2-135.5C-515.1,609.4-467.1,598.5-426.1,628.8"/>
					<path d="M-418,636.9c57.9,55.5,26.3,134.7-36.1,134.6c-73.2,0-118.6-91.8-69.4-140.2C-493.1,601.4-445.1,610.9-418,636.9"/>
					<path d="M-418.3,638.2c52.5,49.1,30.6,128.9-35.5,129.3c-71.3,0.5-113.4-87-65.4-135.6C-494.3,606.7-449,609.5-418.3,638.2"/>
					<path d="M-411.6,647.2c42.9,52.6,12.7,121.7-50.5,115.5c-73.4-7.2-96.1-97-48.8-133.3C-478.7,604.7-434.3,619.4-411.6,647.2"/>
					<path d="M-412.6,648.5c42.7,52.7,7.5,121.6-56.3,110c-68.7-12.5-82.5-96.7-35.7-129.4C-477.7,610.3-436.4,619-412.6,648.5"/>
					<path d="M-407.6,658.5c33.6,55.5-9,106.5-61.2,96.6c-69.4-13.2-74.9-93.2-35.2-121.9C-467.1,606.6-424.3,630.8-407.6,658.5"/>
					<path d="M-409.1,659.8c31.2,52.5-10.1,101-59.6,91.8c-64.6-12-74.1-84.4-29.6-117.8C-474.8,616.1-430.7,623.6-409.1,659.8"/>
					<path d="M-411.1,661.2c28.1,48.3-11,94.2-57.7,87.6c-58.5-8.2-69.9-80.1-29.8-110C-465.1,613.9-425.6,636.2-411.1,661.2"/>
					<path d="M-408.7,672.1c19,50.5-32.8,88.3-75.9,69.5c-51.1-22.3-43.1-89.1,1-106.9C-455.9,623.5-420.2,641.3-408.7,672.1"/>
					<path d="M-411.5,673.5c15.7,45.3-28.7,85.2-73.1,65.7c-48.3-21.2-40-83.2,2-100.6C-453,626.4-420.7,647-411.5,673.5"/>
					<path d="M-414.7,674.9c15,44.9-32.4,78.7-69.9,62.2c-45.5-20.1-36.9-79.4,3.2-94.9C-452.3,631-422.9,650.4-414.7,674.9"/>
					<path d="M-418.2,676.3c14.2,42.6-30.8,74.5-66.5,58.7c-39.3-17.4-36.7-73.3,4.2-89.3C-461.2,638.2-428.2,646.2-418.2,676.3"/>
					<path d="M-419.6,687.9c2.2,31.8-19.9,42-27.2,45.4c-25.3,11.7-44-4.3-50.1-9.6c-29-24.9-13-71.4,26.4-76.5
						C-443.2,643.7-421.1,665.8-419.6,687.9"/>
					<path d="M-422.9,688.8c2.9,22.9-15.9,37.8-16.1,37.9c-12.2,7.7-12.5,7.8-29.9,8.7c-0.1,0-14-3.2-17.9-6
						c-44-31.9-15.5-70.6,7.9-77.7C-456.2,644.8-426.7,659.5-422.9,688.8"/>
					<path d="M-425.6,689.6c3.4,30.4-32.5,60.4-66.3,33.8c-34.5-27.3-8.4-70.3,23.5-70.3C-454.9,653.1-428.5,663.8-425.6,689.6"/>
					<path class="st2" d="M-428.4,690.3c1,10.5-1,29.5-25.3,39.8c-7.2,3-26.9,4.2-41.8-11.4c-21.3-22.3-8.1-63.5,28.2-62.6
						C-445.2,656.6-429.7,676.3-428.4,690.3"/>
					<path class="st3" d="M-431.3,690.9c3.8,39.6-41.8,48.8-62.1,27.7c-25-26-3.4-62.8,26.8-60.4
						C-442.1,660.3-432.3,681.2-431.3,690.9"/>
					<path class="st4" d="M-433.5,691.4c3,20.1-9.5,27.9-20.5,34.8c-1.5,1-15.4,5.6-30.9-2.6c-2.1-1.1-20.7-11.7-17.6-36.8
						c0.7-5.9,9.4-22.2,25.4-25.9C-463.8,657.9-437.1,667.1-433.5,691.4"/>
					<path class="st5" d="M-435.4,702.7c0,0.1-4.6,10.3-6,12c-3.1,3.7-8.8,7-12.7,9.9c-3.7,2.7-10.6,2.1-15.2,2.5
						c-1.4,0.1-19.8-2.7-28.5-19.1c-10.8-20.4,5.6-49,32.5-45.2C-446.7,665.3-431.3,685.8-435.4,702.7"/>
					<path class="st6" d="M-437.5,703.1c-5.4,20.3-24.6,21.8-31.8,22.4c-4.9,0.4-11.5-2.6-15.6-5.3c-3.7-2.4-11.2-12.3-11.2-12.3
						c-10-18.2,3.1-47.4,31.5-43c1.2,0.2,13.7,5.9,13.8,5.9c2.7,1.9,4.9,3.5,10.4,11.3C-435.1,689.6-437.5,702.9-437.5,703.1"/>
					<path class="st7" d="M-439.7,703.4c-2.6,9.3-10.8,14.9-14.7,17.7c-3.8,2.6-10.4,2.6-15,2.9c-4.9,0.4-11.4-2.8-15.5-5.5
						c-3.6-2.3-7.4-6.9-9.5-10.6c-2.7-4.8-8-17.3,2.2-31c8.6-11.6,23.3-11.1,28.2-10c4.4,1,9.9,4,13.6,6.6c0.8,0.6,8,8.9,8,9
						C-436.5,691.4-439.4,702.2-439.7,703.4"/>
					<path class="st8" d="M-441.9,703.8c0,0.1-3.2,9.1-12.7,15.6c-3.8,2.6-10.4,2.8-14.9,3.2c0,0-11.4-3.4-15.5-6
						c-3-1.9-6-5.7-7.8-8.7c-9.1-15.5-0.3-27.2,2.6-31c3.7-4.9,12.1-7.8,14.6-8.5c3.5-1,8.6-0.4,12.1,0.5
						C-463.3,668.9-434.3,678.3-441.9,703.8"/>
					<path class="st9" d="M-443.3,698.5c-0.2,1.7,0.2,4.1-0.6,5.6c-2.1,4-5.5,9.2-8.9,12.1c-2,1.7-2.3,2-16.8,4.8
						c-0.1,0-14.8-2.2-21.5-13.1c-9.2-15.1-0.8-26.4,2.9-31.2c2.2-2.9,12.7-6.8,12.8-6.8c3.6-0.9,8.7-0.2,12.3,0.8
						c8.1,2.1,16.4,12.4,16.4,12.5C-442.4,689.2-442.8,693.9-443.3,698.5"/>
					<path class="st10" d="M-445.9,704.4c-1.7,4-5.4,9.1-9.1,11.4c-0.7,0.4-13.3,3.6-14.8,3.7c-0.1,0-14.6-3.2-19.8-11.8
						c-9.1-14.8-0.6-26,2.6-30.2c0.3-0.5,10.9-5.9,11.8-6.1c3.7-0.8,8.9,0.1,12.5,1.1C-455.3,674.7-439.5,689.2-445.9,704.4"/>
					<path class="st11" d="M-447.9,704.7c-1.4,3.2-4.3,7.3-7.3,9.1c-0.8,0.5-14,4.3-14.6,4.3c-0.9-0.1-15.4-7.3-15.4-7.4
						c-2.9-2.5-4.6-7.7-6-11.2c-3-7.6,1.4-16.8,4.4-19.4c2.1-1.8,10.2-6.5,11.9-6.8c3.8-0.8,9.1,0.3,12.8,1.4
						c1.1,0.3,11.5,9.2,11.6,9.2c1.4,2.9,3.7,6.7,4.1,9.9C-446,697-446.5,701.7-447.9,704.7"/>
					<path class="st12" d="M-449.9,705c-1.1,2.3-3.1,5.4-5.4,6.7c-4,2.3-10.1,5.6-14.6,4.7c-5.1-1-11.6-4.2-15.4-7.7
						c-2.4-2.2-5.2-11.5-5.2-11.5c0-0.1-0.1-12,3.9-14.8c0.4-0.3,10.2-7.2,12-7.6c3.9-0.9,9.4,0.3,13,1.9c3.2,1.5,6.9,4.5,9.1,7.3
						c2,2.6,3,6.9,4.3,9.9C-447,697.1-448.5,701.9-449.9,705"/>
					<path class="st13" d="M-452,705.2c-0.7,1.6-2.1,3.8-3.7,4.6c-4,2.1-9.9,5.9-14.4,4.9c-4.6-1-10.5-3.9-13.9-7
						c-2.7-2.5-5-10.4-5-10.5c0-0.1-0.1-8.6,2.5-12.4c2.5-3.6,7.8-7.4,12.1-8.3c4-0.8,9.5,1,13.3,2.5c2.4,0.9,5,3.3,6.5,5.3
						c2,2.6,4.1,6.7,4.5,9.9C-449.6,697.6-450.5,702.2-452,705.2"/>
					<path class="st14" d="M-454,705.5c-0.4,0.8-1,1.9-1.9,2.3c-4.1,1.9-9.7,5.5-14.3,5.2c-3.6-0.2-7.9-3.3-10.8-5.4
						c-1.8-1.3-3.5-4-4.6-5.9c-4.3-7.2-0.2-14.9-0.1-14.9c2.6-3.4,7.5-7.5,11.7-8.4c4.1-0.9,9.6,1.5,13.5,2.9c1.5,0.5,3.1,2,4,3.3
						c2,2.6,4.3,6.6,4.7,9.9C-451.4,697.8-452.6,702.5-454,705.5"/>
					<path class="st15" d="M-456.1,705.7c-3,3.5-9.6,5.8-14.2,5.6c-2.6-0.1-5.8-2.1-7.7-3.8c-2.8-2.5-6.1-6.5-7.7-9.8
						c-0.8-1.5,3.1-10.9,3.2-11c1.9-2.6,5.6-5.7,8.8-6.4c4.2-0.8,9.7,2.1,13.7,3.3c0.5,0.2,1.1,0.8,1.5,1.2c1.9,2.7,4.5,6.6,4.9,9.9
						C-453.3,698.1-454.6,702.7-456.1,705.7"/>
					<path class="st16" d="M-456.8,701.1c-3.6,6.9-13.5,8.5-13.6,8.5c-1.5-0.1-3.5-1.2-4.6-2.3c-2.8-2.8-7.6-6.3-8.2-10.2
						c-0.5-3.3,2-7.7,3.9-10.5c1.2-1.8,3.8-3.9,5.9-4.3c3.5-0.7,8.2,1.8,11.6,3c1,0.4,2,1.5,2.7,2.3
						C-456.5,690.6-454.9,697.4-456.8,701.1"/>
					<path class="st17" d="M-457.6,696.3c-2,3.9-6.8,7.5-10.1,10.5c-0.7,0.6-2,1.1-2.9,1.1c-2.3-0.1-9.9-10.8-9.9-10.9
						c-0.5-3.4,2.5-7.6,4.2-10.6c0.6-1,1.9-2,3.1-2.3c1.8-0.3,4.5,0.5,6,1.6c2.9,2.3,6.7,5.3,9.2,8
						C-457.5,694.3-457.2,695.6-457.6,696.3"/>
					<path class="st18" d="M-470.8,705c-3.2-0.2-6.3-5-6.8-8.2c0-0.1,4.3-10.7,4.6-10.8c0.1,0,0.3,0,0.4,0.1
						c3.4,2.8,10.9,5.1,11.1,9.5C-461.3,699.6-466.9,705.2-470.8,705"/>
					<path class="st19" d="M-471.2,700.8c-1.6-0.1-3.3-2.6-3.5-4.2c-0.3-1.9,0.6-5.3,2.4-5.8c2.3-0.5,5.9,2.8,6,5.2
						C-466.3,698.1-469.2,701-471.2,700.8"/>
					<path class="st20" d="M-471.6,696.8c-0.1,0-0.3-0.2-0.3-0.3c0-0.2,0-0.4,0.2-0.5c0.2,0,0.5,0.2,0.5,0.4
						C-471.3,696.6-471.5,696.8-471.6,696.8"/>
				</g>
			</g>
			<g>
				<defs>
					<path id="SVGID_7_" d="M-554.8,820.8c-2-1.2-4.7-2.8-6.7-4.1c-3.1-2.1-7.1-5.1-10-7.4c-4-3.2-8.8-8.1-12.3-11.7
						c-2.3-2.4-5.2-5.9-7.1-8.6c-1.8-2.5-4.2-5.9-5.8-8.6c-1.4-2.3-3.2-5.4-4.4-7.8c-1.4-2.7-3.1-6.4-4.3-9.2c-1-2.5-2.2-6-3.1-8.6
						c-1-2.9-2.1-6.8-2.7-9.8c-1.1-5.5-2.3-13-2.7-18.6c-0.4-5.1-0.5-12.1,0.2-17.2c0.4-3.1,0.7-7.2,1.3-10.2
						c0.6-2.7,1.2-6.4,1.9-9.1c0.8-2.9,1.8-6.8,2.9-9.7c1-2.5,2.2-6,3.3-8.4c1.2-2.8,3-6.4,4.5-9c1.3-2.3,3.1-5.4,4.6-7.6
						c1.7-2.6,4-6,6-8.3c3.3-4,7.8-9.2,11.5-12.7c2.2-2.1,5.3-4.8,7.7-6.7c1.9-1.5,4.4-3.4,6.4-4.8c2.7-1.8,6.3-4.1,9.1-5.7
						c1.8-1,4.2-2.3,6-3.2c1.8-0.8,4.2-2,6.1-2.8c1.5-0.7,3.6-1.4,5.2-2c2.5-1,6-2,8.6-2.8c9.8-2.7,17.9-3.6,21.9-3.9
						c3.4-0.3,12.3-0.9,23.7,0.5c5.6,0.7,9.6,1.6,9.6,1.6c2.4,0.5,5.5,1.3,7.9,1.9c1.6,0.4,3.6,1.1,5.1,1.6
						c5.3,1.7,8.5,3.2,11.9,4.7c2.8,1.2,6.4,3.2,9.1,4.6c-16.5-9.4-36.3-13.5-57.5-10.6c21.3-2.9,41,1.2,57.5,10.6
						c4.1,2.5,9.5,5.8,13.3,8.8c2.6,2,6,4.8,8.4,7.1c1.9,1.7,4.4,4.2,6.1,6.1c2.2,2.4,5,5.6,7,8.1c1.6,2.1,3.7,5,5.2,7.2
						c1.7,2.6,3.8,6.1,5.3,8.8c1.3,2.4,2.8,5.6,4,8.1c1.3,2.7,2.7,6.5,3.7,9.4c0.9,2.6,1.9,6.2,2.7,8.8c0.9,2.9,1.7,6.9,2.1,10
						c0.4,2.8,1,6.5,1.2,9.3c0.3,3.1,0.4,7.3,0.4,10.4c0,5.7-0.7,13.3-1.6,18.9c-0.5,3.4-1.4,7.8-2.4,11.1c-0.8,2.6-1.8,6.2-2.7,8.8
						c-1,2.8-2.4,6.6-3.7,9.3c-1.2,2.4-2.7,5.7-4,8c-1.5,2.6-3.5,6-5.2,8.5c-4.9,7.3-9.6,12.6-11.7,14.8c-3,3.2-7.2,7.5-13.8,12.7
						c-1.9,1.5-4.4,3.4-6.4,4.7c-2.7,1.8-6.4,4-9.2,5.6c-4.6,2.7-11.8,5.7-13.3,6.3c-2.5,1-5.9,2.2-8.5,3c-2.5,0.8-5.9,1.7-8.4,2.3
						c-14.2,3.3-28.7,3.8-43.2,1.7c-5-0.7-8.9-1.7-10.6-2.1c-4.6-1.1-9.1-2.6-9.1-2.6c-4.5-1.5-6.4-2.3-11.9-4.7
						C-548.5,824.2-552.1,822.3-554.8,820.8z"/>
				</defs>
				<clipPath id="SVGID_8_">
					<use xlink:href="#SVGID_7_"  style="overflow:visible;"/>
				</clipPath>
				<g class="st24">
					<path class="st22" d="M-613.7,717.8c0.2,3.6,0.3,8.4,0.6,12l-0.6-2.5l-0.3-8.2l-0.1,1.3l0.1,4.3l-0.1-6l0.2-6.1l0.6-6.6l0,2
						l-0.6,6.8l0,0.1c0.3-1.3,0.5-3.1,0.8-4.4l0.5,2.4C-612.9,714.5-613.6,716.3-613.7,717.8"/>
					<path class="st22" d="M-610.8,723.8c-0.1-2.8-0.7-3.5-0.9-3.6c-1.2,0.7-0.8,10.1,0.5,10.5c0.8-0.6,0.2-1.8-0.4-3l0.1-3.2l2,3.4
						l-0.1,2.3c-0.1,3.7-0.6,5.2-1.4,4.5c-2.3-1.9-3-18.6-0.9-19c0.4-0.1,0.7,0.5,0.9,0.9c0.6,1.3,1.5,4.1,1.5,9.2
						C-609.9,725.2-610.6,724.5-610.8,723.8"/>
					<path class="st22" d="M-605.4,730.9c0,0.6-0.1,2.3-1.1,1.3c0,0-0.1-0.1-0.1-0.1l-0.7-0.8l0.3-4.3
						C-606,728.3-605.4,729-605.4,730.9 M-603.3,733.3c0.3-5.3-0.9-6.8-5-11.8c-0.4,5-0.6,11.7-0.6,16.7l1.6,2l-0.1-5.5l0.7,0.8
						l1.3,6.8l2.2,2.2l-1.7-7.7C-604.4,736.7-603.5,736.5-603.3,733.3"/>
					<path class="st22" d="M-594.1,742.3c1.1,3.5,2.5,8.1,3.8,11.5l-3.5-2.2l-2.5-7.8l-1,1.3l0.1,4.2l-2.5-1.9
						c0-5,0.3-11.7,0.6-16.7l2.5,1.9l-0.5,6.9l0.1,0.1c1.1-1.4,2.6-3.3,3.8-4.7l3.4,2.2C-591,738.8-592.8,740.8-594.1,742.3"/>
					<path class="st22" d="M-582,747.3c-0.5-2.8-3-3.9-4.1-2.8c-2.5,2.7-0.1,10.1,3.1,9.5c0.8-0.1,1-1,1-1.6
						c-0.7-0.4-1.7-0.8-2.4-1.2l0.1-3.1l5.7,2.8l-0.1,2.3c-0.5,7.6-6.4,4.6-8.8,1.7c-4.1-5.1-3.7-16,1.8-15.1
						c0.7,0.1,1.3,0.4,1.8,0.6c3.1,1.8,5,4.9,5.2,8.6C-579.6,748.5-581,747.8-582,747.3"/>
					<path class="st22" d="M-569.3,752.9c0,2.3-1.7,1.6-2.4,1.4l-1.5-0.6l0.3-4.2C-570.5,750.4-569.3,751-569.3,752.9 M-565.2,754.7
						c0.4-5.5-2.2-6.6-10.9-10.4c-0.4,4.9-0.7,11.5-0.8,16.4l3.6,1.6l0.1-5.3l1.5,0.6l2.5,6.3l4.2,1.6l-2.9-7.1
						C-567.1,758.2-565.5,757.8-565.2,754.7"/>
					<path class="st22" d="M-550.1,761.6c1.5,3.1,3.6,7.3,5.2,10.3l-5.1-1.5l-3.4-7.1l-1.6,1.4l-0.1,4.1l-4.1-1.3
						c0.2-4.9,0.6-11.3,1-16.2l4.2,1.4l-0.6,6.8l0.2,0.1c1.7-1.6,3.9-3.7,5.6-5.2l5.1,1.5C-545.6,757.6-548.2,759.9-550.1,761.6"/>
					<path class="st22" d="M-532.9,764.3c-0.7-3-4.6-3.5-6-1.5c-2.3,3.4,0.1,9.1,4.5,8.1c1.2-0.3,1.3-1.2,1.5-1.7
						c-0.9-0.2-2.2-0.5-3.2-0.8l0.3-3l7.6,1.8l-0.2,2.2c-1.2,8.2-10.9,5.3-13.9,1.3c-4-5.2-1.9-14.3,6.3-13c0.3,0,0.6,0.1,0.9,0.2
						c4.2,1.2,6.7,3.9,6.9,7.4C-529.7,765-531.5,764.6-532.9,764.3"/>
					<path class="st22" d="M-516.6,767.7c-0.1,2.2-2.1,1.8-3,1.7l-1.8-0.4l0.5-4C-518.1,765.5-516.5,765.8-516.6,767.7
						 M-511.7,768.8c0.3-2.2-0.7-4.3-2.7-5.5c-1.4-0.8-1.4-0.8-10.8-2.8c-0.5,4.8-1.2,11.1-1.7,15.8l4.5,0.9l0.5-5.1l1.8,0.4
						l2.5,5.7l5,0.9l-2.9-6.4C-514.3,772.5-512.1,771.9-511.7,768.8"/>
					<path class="st22" d="M-494.4,773.2c1.4,2.8,3.3,6.4,4.8,9.2l-5.5-0.7l-3.1-6.3l-2,1.6l-0.6,3.9l-4.6-0.7
						c0.7-4.7,1.6-11,2.3-15.7l4.8,0.7l-1,6.6l0.3,0c2-1.7,4.7-4,6.6-5.8l5.6,0.7C-489.2,768.8-492.2,771.3-494.4,773.2"/>
					<path class="st22" d="M-475.8,773.4c-0.5-2.7-4.6-2.7-6.4-0.6c-2,2.5-2.1,8.2,3.4,7.3c1.8-0.3,2.2-1.3,2.4-2
						c-1-0.1-2.3-0.2-3.3-0.3l0.6-2.9l7.8,0.6l-0.5,2.1c-2.2,8-13.3,7.2-15.8,2c-1.9-3.7,0-12.6,9.7-12c4.5,0.6,6.9,2.8,6.8,6.1
						C-472.5,773.6-474.4,773.5-475.8,773.4"/>
					<path class="st22" d="M-459.4,774.3c-0.3,2.1-2.4,2.1-3.2,2l-1.8-0.1l0.9-3.9C-460.7,772.5-459.2,772.5-459.4,774.3
						 M-454.8,774.7c0.6-2.2-0.2-4-2.1-4.9c-1.3-0.6-1.3-0.6-10.7-1.2c-1,4.6-2.4,10.8-3.5,15.4l4.5,0.3l1.3-4.9l1.8,0.1l1.7,5.1
						l4.8,0.2l-1.9-5.7C-457.7,778.6-455.5,777.7-454.8,774.7"/>
					<path class="st22" d="M-439.1,776.5c0.8,2.4,1.8,5.7,2.4,8.1l-4.6,0.1l-1.7-5.6l-2,1.8l-1.3,3.8l-4.2,0
						c1.4-4.6,3.1-10.7,4.4-15.3l4.4,0l-1.7,6.5h0.2c2-2,4.7-4.5,6.7-6.5l4.7-0.1C-434,771.5-436.9,774.4-439.1,776.5"/>
					<path class="st22" d="M-423.9,774c0.1-2.5-2.9-1.8-4.3-0.3c-1.6,1.7-4,7.5-0.4,7.4c2.3-0.1,3.1-1.9,3.4-2.4
						c-0.7,0-1.7,0.1-2.4,0.2l1-2.8l5.7-0.4l-0.8,2.1c-3.2,7.9-11,8.2-12.5,4.5c-1.3-3.3,1.8-12.6,9.6-13.4c3.3,0,4.8,1.7,4.1,5
						C-421.5,773.9-422.9,774-423.9,774"/>
					<path class="st22" d="M-412.7,772.9c-0.6,2.1-2,2.3-2.5,2.3l-1.2,0.1l1.4-3.9C-413.1,771.3-412.2,771.2-412.7,772.9
						 M-409.9,772.8c1-2.6,0.5-4-0.3-4.5c-0.7-0.4-0.7-0.4-6.9,0.2c-1.5,4.6-3.7,10.7-5.5,15.3l3-0.3l2.1-4.9l1.2-0.1l-0.2,4.7
						l2.9-0.4l0.3-5.3C-412.6,776.9-411,775.7-409.9,772.8"/>
					<path class="st22" d="M-401.8,772.9c-0.4,2.3-0.8,5.4-1.4,7.6l-2.2,0.6l0.9-5.2l-1.5,1.9l-1.8,3.8l-2.2,0.4
						c2-4.5,4.5-10.6,6.2-15.3l2.4-0.4l-2.4,6.4l0.1,0c1.5-2.1,3.5-4.8,4.9-7l2.3-0.6C-398.1,767.5-400.7,770.3-401.8,772.9"/>
					<path class="st22" d="M-394.5,769.1c0.1-0.5,0.5-1.7-0.2-1.4c-1.1,0.4-5.1,7.8-4.1,8.8c0.9-0.1,1.7-1.5,2.3-2.7
						c-0.3,0.1-0.7,0.3-1,0.4l1.3-2.9l2.2-0.9l-1,2.1c-3.3,6.9-5.9,8.3-6.3,7c-0.7-2,4.4-13.8,7.9-15.4c1.8-0.5,0.8,2.6,0.1,4.5
						C-393.6,768.7-394.1,768.9-394.5,769.1"/>
					<path class="st22" d="M-390.8,767c-0.9,2.1-1.3,2.4-1.4,2.5l-0.3,0.2l1.7-3.9c0.5-0.3,0.5-0.4,0.5-0.1
						C-390.4,766-390.6,766.5-390.8,767 M-390.3,766.6c0.5-1.2,1.7-4,1.5-4.6c-0.1,0-0.1,0-1.8,1c-1.9,4.7-4.7,10.8-7,15.4l0.9-0.5
						l2.6-5l0.3-0.2l-2.1,4.6l0.6-0.6l2.5-5.2C-392.4,770.9-391.5,769.5-390.3,766.6"/>
					<g>
						<path class="st22" d="M-602.5,768.8c1,2.3,1.4,3.5,1.5,3.8c-0.1,0-0.1,0-0.5-0.8l-2.3-4.8c0.3,0.8,0.8,1.8,1,2
							c-0.1-0.5-0.6-1.4-1.2-2.6l-1.1-2.7l1.9,3.1L-602.5,768.8"/>
						<path class="st22" d="M-605.2,763.2c-1-2.6-1.4-3.2-1.5-3.3c0,0.3,0.9,2.6,1.5,4.1l-0.3-0.7l-2.4-6.5
							c-0.2-0.7-0.3-0.8-0.3-0.9c0.1,0.2,0.2,0.2,0.5,0.9c0.7,1.3,2,4.2,3.6,8.3C-604.3,764.5-604.9,763.8-605.2,763.2"/>
					</g>
					<path class="st22" d="M-600.2,769.7c0.4,1,0.4,1.4,0.2,1.3c-0.1-0.1-0.3-0.3-0.5-0.4l-0.6-0.7l-1.3-3.6
						C-601.3,767.5-600.8,768.1-600.2,769.7 M-598.1,771.8c-1.5-4.2-2.3-5.2-6.8-10.5c1.5,4.3,3.8,10.1,5.7,14.3l1.4,1.8l-2.1-4.6
						l0.6,0.7l3.2,5.7l2,1.9l-3.8-6.4C-597.6,774.6-597.2,774.5-598.1,771.8"/>
					<path class="st22" d="M-589,779.9c1.9,2.8,4.4,6.6,6.4,9.4l-3.1-1.9l-4.3-6.4l-0.2,1l1.5,3.4l-2.3-1.7c-1.7-4-3.8-9.5-5.2-13.7
						l2.4,1.8l1.8,5.7l0.1,0.1c0.4-1.1,0.8-2.6,1.3-3.7l3.2,2C-587.8,777.1-588.6,778.7-589,779.9"/>
					<path class="st22" d="M-578.4,784.5c-1.2-2.3-3.5-3.3-4-2.5c-1,1.7,2.7,8,5.2,7.8c0.6-0.1,0.4-0.8,0.3-1.2
						c-0.6-0.3-1.5-0.7-2.1-1.1l-0.8-2.5l5.2,2.5l0.5,1.8c1.4,4.8-1.7,3.6-3.1,2.9c-6.1-3.1-10.6-13-7.4-14.1
						c0.9-0.3,2.2,0.3,2.9,0.6c2.9,1.6,5.3,4.2,6.5,7.2C-576.2,785.5-577.7,785.2-578.4,784.5"/>
					<path class="st22" d="M-566.8,789.5c0.6,1.8-1,1.2-1.6,1l-1.3-0.5l-0.9-3.3C-568.4,787.5-567.2,788-566.8,789.5 M-563,791.1
						c-1-4.3-3.4-5.3-11.5-8.7c1,3.9,2.6,9,3.9,12.8l3.2,1.3l-1.4-4.1l1.3,0.5l3.6,4.9l3.7,1.3l-4.1-5.5
						C-563.7,793.7-562.5,793.5-563,791.1"/>
					<path class="st22" d="M-549,796.9c1.9,2.4,4.4,5.5,6.3,7.8l-4.4-1.2l-4.3-5.4l-1,1l0.8,3l-3.6-1.1c-1-3.7-2.1-8.6-2.8-12.3
						l3.8,1.2l0.9,5.2l0.2,0.1c1.1-1.2,2.6-2.7,3.7-3.8l4.7,1.3C-545.9,794-547.7,795.6-549,796.9"/>
					<path class="st22" d="M-534,799.4c-1.1-2.4-5-2.9-5.6-0.8c-0.9,3.5,3.4,6.5,5.7,5.5c0.6-0.3,0.6-0.7,0.6-1.1
						c-0.8-0.2-1.9-0.5-2.8-0.6l-0.3-2.2l6.7,1.5l0.1,1.6c0.1,5.9-8.2,3.6-11.4,0.6c-3.5-3.3-4.3-9.3,1.1-9.7c1.1-0.1,2,0.1,2.9,0.3
						c3.8,1,6.4,3.2,7,5.8C-531.1,800-532.7,799.7-534,799.4"/>
					<path class="st22" d="M-519.5,802.3c0.1,1.6-1.7,1.3-2.4,1.2l-1.6-0.3l0-3C-521,800.7-519.6,801-519.5,802.3 M-515.2,803.3
						c0.1-1.7-0.9-3.2-2.8-4.2c-1.3-0.7-1.3-0.7-9.8-2.3c0.1,3.5,0.3,8.2,0.6,11.6l3.8,0.8l-0.2-3.6l1.6,0.3l2.7,4.1l4.2,0.7l-3-4.6
						C-517.1,805.9-515.3,805.5-515.2,803.3"/>
					<path class="st22" d="M-500.1,806.7c1.3,2,2.9,4.6,4.1,6.5l-4.6-0.5l-2.9-4.4l-1.6,1.1l-0.3,2.7l-3.9-0.5
						c0.3-3.4,0.7-7.9,1-11.3l4.2,0.6l-0.6,4.8l0.2,0c1.7-1.3,4-2.9,5.6-4.2l4.9,0.6C-495.6,803.5-498.2,805.3-500.1,806.7"/>
					<path class="st22" d="M-484.1,807c-0.3-2.1-4.5-2-5.9,0.1c-1.9,2.9,0.1,5.5,3.6,4.6c1.1-0.3,1.4-0.9,1.5-1.3
						c-0.8-0.1-1.9-0.2-2.8-0.2l0.6-2l6.6,0.5l-0.5,1.5c-2.4,5.8-12,4.6-13.6,0.8c-1.1-2.6,0.5-8.5,8.8-8.1c3.8,0.4,5.9,2.1,5.6,4.5
						C-481.3,807.2-482.9,807.1-484.1,807"/>
					<path class="st22" d="M-470.2,807.7c-0.5,1.5-2.2,1.5-2.9,1.5l-1.5-0.1l1.1-2.8C-471.1,806.4-469.8,806.4-470.2,807.7
						 M-466.3,808c0.7-1.6,0.3-2.9-1.2-3.5c-1-0.5-1-0.5-9.2-0.9c-1.1,3.3-2.7,7.6-4,10.9l3.6,0.2l1.5-3.4l1.5,0.1l0.9,3.5l3.9,0.1
						l-0.9-3.9C-469.2,810.8-467.2,810.1-466.3,808"/>
					<path class="st22" d="M-453.4,809.2c0.1,1.7,0.4,3.9,0.4,5.6l-3.7,0.1l-0.4-3.8l-2,1.3l-1.7,2.6l-3.4,0
						c1.8-3.2,4.2-7.5,5.8-10.8l3.8,0l-2.5,4.7h0.2c2-1.4,4.8-3.3,6.8-4.7l4.1-0.1C-448.1,805.5-451.1,807.7-453.4,809.2"/>
					<path class="st22" d="M-440.3,807.3c0.7-1.9-2.2-0.9-2.2-0.8c-2.5,1-5.4,5-4.1,5.7c0,0,2.1,0.7,4.1-1.6c-0.6,0-1.4,0.1-2,0.2
						l1.5-2l4.7-0.4l-1.1,1.5c-4.6,5.4-10.7,5.8-11,3.3c-0.4-2.3,4.2-8.9,10.9-9.6c2.8-0.1,3.6,1.2,2.2,3.5
						C-438.3,807.1-439.4,807.2-440.3,807.3"/>
					<path class="st22" d="M-430.9,806.2c-1.1,1.5-2.2,1.7-2.6,1.7l-1,0.1l2.2-2.8C-430.9,805.1-430,805-430.9,806.2 M-428.7,806.1
						c0.7-0.9,2.9-3.8-0.3-3.4c-1.3,0.1-3,0.3-4.3,0.5c-2.5,3.3-5.9,7.7-8.5,10.8l2.4-0.3l3-3.4l0.9-0.1l-1.6,3.2l2.2-0.3l2-3.6
						C-432.1,809-430.5,808.2-428.7,806.1"/>
					<path class="st22" d="M-422.8,805.9c-1.2,1.6-2.8,3.8-4.1,5.3l-1.6,0.5l2.7-3.6l-1.8,1.4l-2.8,2.7l-1.7,0.4
						c3.1-3.2,7.1-7.5,9.9-10.9l1.9-0.4l-4,4.7l0.1,0c1.8-1.6,4.3-3.6,6.1-5.2l1.9-0.5C-418.1,801.9-421,804-422.8,805.9"/>
					<path class="st22" d="M-416.5,802.9c0.6-0.7,0.7-0.9,0.7-1c-0.5-0.1-6.8,5.8-6.7,6.4c0.4-0.1,1.3-0.7,2.6-2
						c-0.2,0.1-0.5,0.2-0.7,0.3l2.1-2.1l1.6-0.8l-1.6,1.5c-3.5,3.3-6.5,5.6-7,5.4c-0.1-0.9,9.1-10.3,11.8-11.5
						c0.2-0.1,0.6-0.2,0.3,0.4C-413.5,800.2-414.5,801.9-416.5,802.9"/>
					<path class="st22" d="M-413.7,801.1l-0.1,0.2l-1.1,1c-0.5,0.5-0.6,0.6-0.7,0.7l-0.2,0.2l2.9-2.9c0.1-0.1,0.2-0.2,0.3-0.2
						C-412.7,800.1-412.7,800.1-413.7,801.1 M-418.6,805.8c2.5-2.5,5.9-5.7,8.3-8.3l0,0c0,0,0.1-0.1,0.1-0.2
						c-0.4,0.2-0.9,0.6-1.3,0.9c-3.3,3.5-7.9,8-11.5,11.3l0.6-0.4l0.3-0.2l3.8-3.3l0.2-0.2L-418.6,805.8"/>
					<path class="st22" d="M-580.7,800.8c0.3,0.3,0.5,0.5,0.8,0.8l-2.8-2.8C-582.2,799.3-581,800.6-580.7,800.8 M-578.9,802.5
						c-4.5-4.6-6.1-6.4-6.6-6.9l0.2,0.2c2.5,2.7,5.8,6.2,8.5,8.8l0,0C-577.4,804.1-578,803.4-578.9,802.5"/>
					<path class="st22" d="M-570.9,808.7c2.5,2,5.8,4.7,8.4,6.6l-2.5-1.4l-5.7-4.5l0.5,0.7l2.8,2.4l-1.8-1.2
						c-3.2-2.8-7.3-6.8-10.3-9.9l2,1.4l3.9,4.2l0.1,0.1c-0.4-0.8-1-1.7-1.3-2.5l2.7,1.6C-571.7,806.8-571.5,808-570.9,808.7"/>
					<path class="st22" d="M-563,812.4c-1.5-1.4-3-2.1-3.4-2c-0.1,1.4,6.2,5.8,6.8,5.5c0-0.5,0-0.5-2.2-1.5l-1.7-1.7l4.2,1.9
						l1.2,1.2c0.8,0.8,2.3,2.3,1.4,2.2c-2.8-0.1-13.7-8.9-12.7-10.2c0.3-0.4,1.5,0.2,2.1,0.5c2.4,1.3,4.9,3.1,7.1,5.2
						C-561.2,813.2-562.3,812.8-563,812.4"/>
					<path class="st22" d="M-553.7,816.2c0.5,0.5,0.6,0.8,0.3,0.8c-0.2,0-0.6-0.1-0.8-0.2l-1-0.4l-1.9-2.2
						C-555.5,814.9-554.7,815.2-553.7,816.2 M-550.7,817.4c-2.3-2.8-4-3.5-10.8-6.2c2.3,2.7,5.6,6.1,8.3,8.5l2.4,1l-2.8-2.5l1,0.4
						l4.5,3.2l2.8,1l-5-3.5C-550,819-549.4,818.9-550.7,817.4"/>
					<path class="st22" d="M-539.3,821.5c2.1,1.5,4.8,3.4,6.9,4.8l-3.2-0.8l-4.8-3.3l-0.2,0.6l1.7,1.8l-2.6-0.8
						c-2.1-2.2-4.7-5.3-6.6-7.7l3,0.9l2.3,3.3l0.2,0c0.4-0.7,0.9-1.6,1.3-2.3l3.7,1C-538.1,819.8-538.9,820.7-539.3,821.5"/>
					<path class="st22" d="M-528.3,823.5c-1.2-1.3-3.9-1.9-4.1-0.9c-0.4,1.7,4,4.3,5.5,3.7c0.3-0.1,0.2-0.3,0.1-0.6
						c-0.6-0.1-1.4-0.3-2-0.4l-0.8-1.3l5,1.1l0.5,0.9c1.6,3.3-4.1,1.4-4.7,1.2c-5.2-1.8-8.3-5.8-6-6.7c1-0.4,2.6-0.1,3.3,0.1
						c3,0.8,5.3,2.1,6.4,3.7C-526.1,823.9-527.5,823.9-528.3,823.5"/>
					<path class="st22" d="M-517.4,825.5c0.3,0.8-0.6,0.8-1.5,0.6l-1.2-0.2l-0.6-1.7C-518.8,824.5-517.8,824.7-517.4,825.5
						 M-514.2,826.1c-0.5-2.3-2.7-2.7-10.2-4.1c0.8,2,2.1,4.7,3.2,6.6l2.7,0.5l-1-1.9l1.1,0.2l2.8,2.2l3,0.5l-3-2.4
						C-515,827.6-513.9,827.4-514.2,826.1"/>
					<path class="st22" d="M-503,828.3c1,1,2.3,2.3,3.3,3.3l-3.1-0.3l-2.4-2.3l-1,0.5l0.1,1.3l-2.6-0.3c-0.3-1.8-0.6-4.3-0.8-6.1
						l3.2,0.4l0,2.7l0.2,0c1.1-0.7,2.6-1.6,3.7-2.3l3.7,0.4C-500,826.6-501.7,827.5-503,828.3"/>
					<path class="st22" d="M-491.7,828.6c-0.2-1.1-3.2-1.1-4.2,0c-0.9,1.1-0.5,2.6,2.2,2.4c1-0.1,1.3-0.4,1.4-0.7
						c-0.6,0-1.3-0.1-1.9-0.1l0.4-1l4.6,0.3l-0.4,0.8c-2.1,3.1-9.3,2.1-9.6-0.5c-0.2-1.5,1.4-3.7,6.4-3.4c2.8,0.3,4.2,1.2,3.9,2.5
						C-489.7,828.7-490.8,828.6-491.7,828.6"/>
					<path class="st22" d="M-481.9,829c-0.5,0.8-1.7,0.8-2.2,0.8l-1,0l1-1.5C-482.4,828.3-481.5,828.3-481.9,829 M-479.3,829.1
						c0.9-1,0.4-1.6-0.4-1.9c-0.7-0.2-0.7-0.2-6.5-0.5c-1,1.7-2.3,3.9-3.4,5.5l2.4,0.1l1.3-1.5l1,0l0.2,1.6l2.4,0l0-1.8
						C-481.6,830.5-480.2,830.2-479.3,829.1"/>
					<path class="st22" d="M-470.9,829.5c-0.4,0.8-0.9,1.8-1.5,2.5l-2.3,0.2l0.9-1.6l-1.6,0.6l-1.7,1.2l-2.1,0.1
						c1.9-1.5,4.3-3.6,6.1-5.3l2.6,0l-2.7,2.5h0.1c1.7-0.8,4-1.8,5.8-2.5l2.9-0.1C-466.4,827.6-469.3,828.1-470.9,829.5"/>
					<path class="st22" d="M-461.8,828.3c0.2-0.2,0.6-0.5,0.2-0.5c-1.2-0.3-5.6,2-6,2.9c0,0,0,0.1,0,0.1c0,0,1,0.2,3.1-0.8
						c-0.4,0-0.9,0.1-1.3,0.1l1.7-1l3-0.3l-1.4,0.7c-4.2,2.1-8.3,2.8-8,1.9c0.3-0.8,5.5-4.5,10.4-5.1c1.3-0.1,1.7,0.2,1.2,0.8
						C-459.5,828.1-459.5,828.1-461.8,828.3"/>
					<path class="st22" d="M-455.8,827.5c-0.9,0.5-1.7,0.8-2.4,0.9l-0.6,0.1l2.6-1.4c0.3,0,0.5-0.1,0.8-0.1c0.1,0,0.2,0,0.2,0.1
						C-455.2,827.1-455.4,827.2-455.8,827.5 M-454.6,827.3c1.3-0.7,2.7-1.5,2.3-1.7c-0.1-0.1-0.1-0.1-3.5,0.4
						c-2.9,1.7-7,3.9-10.1,5.3l1.3-0.2l3.5-1.5l0.5-0.1l-2.8,1.3l1.2-0.3l3.4-1.5C-458.1,828.8-456.5,828.3-454.6,827.3"/>
					<path class="st22" d="M-451.8,826.9l-2.2,1l-2.2,0.9l1.6-0.7l-1.8,0.7l-1.5,0.6l-2.5,0.9c3.7-1.5,8.5-3.6,12.1-5.4l1.2-0.3
						l-5,2.5l0,0c1.9-0.9,4.4-2,6.3-2.9l1.1-0.4C-447,824.7-449.7,826-451.8,826.9"/>
					<path class="st22" d="M-449.9,826.1c1-0.5,2.8-1.3,5.9-2.8L-449.9,826.1"/>
				</g>
			</g>
		</g>
	</g>
</g>
<g>
	<circle class="st22" cx="-515.9" cy="679.1" r="58.9"/>
	<circle class="st22" cx="-450.6" cy="717.9" r="36.6"/>
</g>
<g>
	<defs>
		<rect id="SVGID_9_" x="-558.2" y="425.6" width="434" height="61.3"/>
	</defs>
	<clipPath id="SVGID_10_">
		<use xlink:href="#SVGID_9_"  style="overflow:visible;"/>
	</clipPath>
	<g style="clip-path:url(#SVGID_10_);">
		
			<use xlink:href="#New_Symbol"  width="434" height="61.3" x="-217" y="-30.6" transform="matrix(1 0 0 -1 -342.1992 457.2316)" style="overflow:visible;"/>
	</g>
</g>
<circle class="st22" cx="1132.7" cy="-837.3" r="433.6"/>
<path d="M-380-562"/>
<g>
	<circle class="st25" cx="259" cy="516.5" r="258.5"/>
	<circle class="st25" cx="517.5" cy="258.5" r="258.5"/>
	<circle class="st25" cx="741.5" cy="516.5" r="258.5"/>
	<g>
		<path class="st26" d="M214,434.8h55.7v230.9h2.9l65.6-230.9h65.3l-72.7,252L405,999.5h-66.8L289.3,785l-19.6,67.1v147.4H214
			L214,434.8L214,434.8z"/>
		<path class="st26" d="M510.9,556.5c-29.6,0-46.9,58.9-46.9,159.9c0,101.4,16.1,161.1,46.6,161.5c26.4-0.4,40.1-33.5,40.4-85.8
			h-39.3V686h93.2v77.2c0,153.7-39.5,244.2-94.9,244.2c-61.5,0-103.3-110.4-103.4-289.4c0.1-185.7,46-291,103.1-291
			c49.8,0,88.2,80.3,92.9,193.5H546C542.2,579.9,529.5,556.5,510.9,556.5z"/>
		<path class="st26" d="M632.8,434.8H723c47.5,0,78.5,71.8,78.5,191.1c0,78-13.5,133-36.3,161.9l43.4,211.8h-60.6l-37.7-188h-21.8
			v188h-55.7L632.8,434.8L632.8,434.8z M710.1,695.3c21,0,33.3-20.3,33.1-69.4c0.2-49.9-12.2-72.2-33.1-72.5h-21.7v142L710.1,695.3
			L710.1,695.3z"/>
	</g>
</g>
<circle class="st25" cx="1769.9" cy="-562.5" r="203.6"/>
<circle class="st25" cx="-124.5" cy="-632.5" r="258.5"/>
</svg>
